%TF.GenerationSoftware,KiCad,Pcbnew,7.0.11+dfsg-1build4*%
%TF.CreationDate,2026-01-30T16:30:13+11:00*%
%TF.ProjectId,desk-controller,6465736b-2d63-46f6-9e74-726f6c6c6572,rev?*%
%TF.SameCoordinates,Original*%
%TF.FileFunction,Legend,Top*%
%TF.FilePolarity,Positive*%
%FSLAX46Y46*%
G04 Gerber Fmt 4.6, Leading zero omitted, Abs format (unit mm)*
G04 Created by KiCad (PCBNEW 7.0.11+dfsg-1build4) date 2026-01-30 16:30:13*
%MOMM*%
%LPD*%
G01*
G04 APERTURE LIST*
%ADD10C,0.150000*%
%ADD11C,0.100000*%
%ADD12C,0.120000*%
G04 APERTURE END LIST*
D10*
X103238095Y-108954819D02*
X103238095Y-107954819D01*
X103238095Y-108431009D02*
X103809523Y-108431009D01*
X103809523Y-108954819D02*
X103809523Y-107954819D01*
X104190476Y-107954819D02*
X104809523Y-107954819D01*
X104809523Y-107954819D02*
X104476190Y-108335771D01*
X104476190Y-108335771D02*
X104619047Y-108335771D01*
X104619047Y-108335771D02*
X104714285Y-108383390D01*
X104714285Y-108383390D02*
X104761904Y-108431009D01*
X104761904Y-108431009D02*
X104809523Y-108526247D01*
X104809523Y-108526247D02*
X104809523Y-108764342D01*
X104809523Y-108764342D02*
X104761904Y-108859580D01*
X104761904Y-108859580D02*
X104714285Y-108907200D01*
X104714285Y-108907200D02*
X104619047Y-108954819D01*
X104619047Y-108954819D02*
X104333333Y-108954819D01*
X104333333Y-108954819D02*
X104238095Y-108907200D01*
X104238095Y-108907200D02*
X104190476Y-108859580D01*
X158416667Y-108907200D02*
X158559524Y-108954819D01*
X158559524Y-108954819D02*
X158797619Y-108954819D01*
X158797619Y-108954819D02*
X158892857Y-108907200D01*
X158892857Y-108907200D02*
X158940476Y-108859580D01*
X158940476Y-108859580D02*
X158988095Y-108764342D01*
X158988095Y-108764342D02*
X158988095Y-108669104D01*
X158988095Y-108669104D02*
X158940476Y-108573866D01*
X158940476Y-108573866D02*
X158892857Y-108526247D01*
X158892857Y-108526247D02*
X158797619Y-108478628D01*
X158797619Y-108478628D02*
X158607143Y-108431009D01*
X158607143Y-108431009D02*
X158511905Y-108383390D01*
X158511905Y-108383390D02*
X158464286Y-108335771D01*
X158464286Y-108335771D02*
X158416667Y-108240533D01*
X158416667Y-108240533D02*
X158416667Y-108145295D01*
X158416667Y-108145295D02*
X158464286Y-108050057D01*
X158464286Y-108050057D02*
X158511905Y-108002438D01*
X158511905Y-108002438D02*
X158607143Y-107954819D01*
X158607143Y-107954819D02*
X158845238Y-107954819D01*
X158845238Y-107954819D02*
X158988095Y-108002438D01*
X159321429Y-107954819D02*
X159559524Y-108954819D01*
X159559524Y-108954819D02*
X159750000Y-108240533D01*
X159750000Y-108240533D02*
X159940476Y-108954819D01*
X159940476Y-108954819D02*
X160178572Y-107954819D01*
X161083333Y-108954819D02*
X160511905Y-108954819D01*
X160797619Y-108954819D02*
X160797619Y-107954819D01*
X160797619Y-107954819D02*
X160702381Y-108097676D01*
X160702381Y-108097676D02*
X160607143Y-108192914D01*
X160607143Y-108192914D02*
X160511905Y-108240533D01*
X111916667Y-108907200D02*
X112059524Y-108954819D01*
X112059524Y-108954819D02*
X112297619Y-108954819D01*
X112297619Y-108954819D02*
X112392857Y-108907200D01*
X112392857Y-108907200D02*
X112440476Y-108859580D01*
X112440476Y-108859580D02*
X112488095Y-108764342D01*
X112488095Y-108764342D02*
X112488095Y-108669104D01*
X112488095Y-108669104D02*
X112440476Y-108573866D01*
X112440476Y-108573866D02*
X112392857Y-108526247D01*
X112392857Y-108526247D02*
X112297619Y-108478628D01*
X112297619Y-108478628D02*
X112107143Y-108431009D01*
X112107143Y-108431009D02*
X112011905Y-108383390D01*
X112011905Y-108383390D02*
X111964286Y-108335771D01*
X111964286Y-108335771D02*
X111916667Y-108240533D01*
X111916667Y-108240533D02*
X111916667Y-108145295D01*
X111916667Y-108145295D02*
X111964286Y-108050057D01*
X111964286Y-108050057D02*
X112011905Y-108002438D01*
X112011905Y-108002438D02*
X112107143Y-107954819D01*
X112107143Y-107954819D02*
X112345238Y-107954819D01*
X112345238Y-107954819D02*
X112488095Y-108002438D01*
X112821429Y-107954819D02*
X113059524Y-108954819D01*
X113059524Y-108954819D02*
X113250000Y-108240533D01*
X113250000Y-108240533D02*
X113440476Y-108954819D01*
X113440476Y-108954819D02*
X113678572Y-107954819D01*
X113964286Y-107954819D02*
X114583333Y-107954819D01*
X114583333Y-107954819D02*
X114250000Y-108335771D01*
X114250000Y-108335771D02*
X114392857Y-108335771D01*
X114392857Y-108335771D02*
X114488095Y-108383390D01*
X114488095Y-108383390D02*
X114535714Y-108431009D01*
X114535714Y-108431009D02*
X114583333Y-108526247D01*
X114583333Y-108526247D02*
X114583333Y-108764342D01*
X114583333Y-108764342D02*
X114535714Y-108859580D01*
X114535714Y-108859580D02*
X114488095Y-108907200D01*
X114488095Y-108907200D02*
X114392857Y-108954819D01*
X114392857Y-108954819D02*
X114107143Y-108954819D01*
X114107143Y-108954819D02*
X114011905Y-108907200D01*
X114011905Y-108907200D02*
X113964286Y-108859580D01*
X168238095Y-130254819D02*
X168238095Y-129254819D01*
X168238095Y-129731009D02*
X168809523Y-129731009D01*
X168809523Y-130254819D02*
X168809523Y-129254819D01*
X169714285Y-129588152D02*
X169714285Y-130254819D01*
X169476190Y-129207200D02*
X169238095Y-129921485D01*
X169238095Y-129921485D02*
X169857142Y-129921485D01*
X103238095Y-130254819D02*
X103238095Y-129254819D01*
X103238095Y-129731009D02*
X103809523Y-129731009D01*
X103809523Y-130254819D02*
X103809523Y-129254819D01*
X104238095Y-129350057D02*
X104285714Y-129302438D01*
X104285714Y-129302438D02*
X104380952Y-129254819D01*
X104380952Y-129254819D02*
X104619047Y-129254819D01*
X104619047Y-129254819D02*
X104714285Y-129302438D01*
X104714285Y-129302438D02*
X104761904Y-129350057D01*
X104761904Y-129350057D02*
X104809523Y-129445295D01*
X104809523Y-129445295D02*
X104809523Y-129540533D01*
X104809523Y-129540533D02*
X104761904Y-129683390D01*
X104761904Y-129683390D02*
X104190476Y-130254819D01*
X104190476Y-130254819D02*
X104809523Y-130254819D01*
D11*
X162542580Y-111238095D02*
X161733057Y-111238095D01*
X161733057Y-111238095D02*
X161637819Y-111285714D01*
X161637819Y-111285714D02*
X161590200Y-111333333D01*
X161590200Y-111333333D02*
X161542580Y-111428571D01*
X161542580Y-111428571D02*
X161542580Y-111619047D01*
X161542580Y-111619047D02*
X161590200Y-111714285D01*
X161590200Y-111714285D02*
X161637819Y-111761904D01*
X161637819Y-111761904D02*
X161733057Y-111809523D01*
X161733057Y-111809523D02*
X162542580Y-111809523D01*
X161542580Y-112809523D02*
X161542580Y-112238095D01*
X161542580Y-112523809D02*
X162542580Y-112523809D01*
X162542580Y-112523809D02*
X162399723Y-112428571D01*
X162399723Y-112428571D02*
X162304485Y-112333333D01*
X162304485Y-112333333D02*
X162256866Y-112238095D01*
D10*
X168238095Y-108954819D02*
X168238095Y-107954819D01*
X168238095Y-108431009D02*
X168809523Y-108431009D01*
X168809523Y-108954819D02*
X168809523Y-107954819D01*
X169809523Y-108954819D02*
X169238095Y-108954819D01*
X169523809Y-108954819D02*
X169523809Y-107954819D01*
X169523809Y-107954819D02*
X169428571Y-108097676D01*
X169428571Y-108097676D02*
X169333333Y-108192914D01*
X169333333Y-108192914D02*
X169238095Y-108240533D01*
X135166667Y-108907200D02*
X135309524Y-108954819D01*
X135309524Y-108954819D02*
X135547619Y-108954819D01*
X135547619Y-108954819D02*
X135642857Y-108907200D01*
X135642857Y-108907200D02*
X135690476Y-108859580D01*
X135690476Y-108859580D02*
X135738095Y-108764342D01*
X135738095Y-108764342D02*
X135738095Y-108669104D01*
X135738095Y-108669104D02*
X135690476Y-108573866D01*
X135690476Y-108573866D02*
X135642857Y-108526247D01*
X135642857Y-108526247D02*
X135547619Y-108478628D01*
X135547619Y-108478628D02*
X135357143Y-108431009D01*
X135357143Y-108431009D02*
X135261905Y-108383390D01*
X135261905Y-108383390D02*
X135214286Y-108335771D01*
X135214286Y-108335771D02*
X135166667Y-108240533D01*
X135166667Y-108240533D02*
X135166667Y-108145295D01*
X135166667Y-108145295D02*
X135214286Y-108050057D01*
X135214286Y-108050057D02*
X135261905Y-108002438D01*
X135261905Y-108002438D02*
X135357143Y-107954819D01*
X135357143Y-107954819D02*
X135595238Y-107954819D01*
X135595238Y-107954819D02*
X135738095Y-108002438D01*
X136071429Y-107954819D02*
X136309524Y-108954819D01*
X136309524Y-108954819D02*
X136500000Y-108240533D01*
X136500000Y-108240533D02*
X136690476Y-108954819D01*
X136690476Y-108954819D02*
X136928572Y-107954819D01*
X137261905Y-108050057D02*
X137309524Y-108002438D01*
X137309524Y-108002438D02*
X137404762Y-107954819D01*
X137404762Y-107954819D02*
X137642857Y-107954819D01*
X137642857Y-107954819D02*
X137738095Y-108002438D01*
X137738095Y-108002438D02*
X137785714Y-108050057D01*
X137785714Y-108050057D02*
X137833333Y-108145295D01*
X137833333Y-108145295D02*
X137833333Y-108240533D01*
X137833333Y-108240533D02*
X137785714Y-108383390D01*
X137785714Y-108383390D02*
X137214286Y-108954819D01*
X137214286Y-108954819D02*
X137833333Y-108954819D01*
D12*
%TO.C,SW1*%
X156250000Y-103500000D02*
X156250000Y-105000000D01*
X157500000Y-107500000D02*
X162000000Y-107500000D01*
X162000000Y-101000000D02*
X157500000Y-101000000D01*
X163250000Y-105000000D02*
X163250000Y-103500000D01*
%TO.C,SW3*%
X109750000Y-103500000D02*
X109750000Y-105000000D01*
X111000000Y-107500000D02*
X115500000Y-107500000D01*
X115500000Y-101000000D02*
X111000000Y-101000000D01*
X116750000Y-105000000D02*
X116750000Y-103500000D01*
%TO.C,SW2*%
X133000000Y-103500000D02*
X133000000Y-105000000D01*
X134250000Y-107500000D02*
X138750000Y-107500000D01*
X138750000Y-101000000D02*
X134250000Y-101000000D01*
X140000000Y-105000000D02*
X140000000Y-103500000D01*
%TD*%
M02*
