%TF.GenerationSoftware,KiCad,Pcbnew,7.0.11+dfsg-1build4*%
%TF.CreationDate,2026-01-30T16:30:12+11:00*%
%TF.ProjectId,desk-controller,6465736b-2d63-46f6-9e74-726f6c6c6572,rev?*%
%TF.SameCoordinates,Original*%
%TF.FileFunction,Copper,L2,Bot*%
%TF.FilePolarity,Positive*%
%FSLAX46Y46*%
G04 Gerber Fmt 4.6, Leading zero omitted, Abs format (unit mm)*
G04 Created by KiCad (PCBNEW 7.0.11+dfsg-1build4) date 2026-01-30 16:30:12*
%MOMM*%
%LPD*%
G01*
G04 APERTURE LIST*
%TA.AperFunction,ComponentPad*%
%ADD10C,0.800000*%
%TD*%
%TA.AperFunction,ComponentPad*%
%ADD11C,6.400000*%
%TD*%
%TA.AperFunction,ComponentPad*%
%ADD12C,2.000000*%
%TD*%
%TA.AperFunction,ComponentPad*%
%ADD13C,1.524000*%
%TD*%
G04 APERTURE END LIST*
D10*
%TO.P,H3,1,1*%
%TO.N,GND*%
X101600000Y-104000000D03*
X102302944Y-102302944D03*
X102302944Y-105697056D03*
X104000000Y-101600000D03*
D11*
X104000000Y-104000000D03*
D10*
X104000000Y-106400000D03*
X105697056Y-102302944D03*
X105697056Y-105697056D03*
X106400000Y-104000000D03*
%TD*%
D12*
%TO.P,SW1,1,1*%
%TO.N,Net-(U1-IO21)*%
X156500000Y-102000000D03*
X163000000Y-102000000D03*
%TO.P,SW1,2,2*%
%TO.N,GND*%
X156500000Y-106500000D03*
X163000000Y-106500000D03*
%TD*%
%TO.P,SW3,1,1*%
%TO.N,Net-(U1-IO18)*%
X110000000Y-102000000D03*
X116500000Y-102000000D03*
%TO.P,SW3,2,2*%
%TO.N,GND*%
X110000000Y-106500000D03*
X116500000Y-106500000D03*
%TD*%
D10*
%TO.P,H4,1,1*%
%TO.N,GND*%
X166600000Y-134000000D03*
X167302944Y-132302944D03*
X167302944Y-135697056D03*
X169000000Y-131600000D03*
D11*
X169000000Y-134000000D03*
D10*
X169000000Y-136400000D03*
X170697056Y-132302944D03*
X170697056Y-135697056D03*
X171400000Y-134000000D03*
%TD*%
%TO.P,H2,1,1*%
%TO.N,GND*%
X101600000Y-134000000D03*
X102302944Y-132302944D03*
X102302944Y-135697056D03*
X104000000Y-131600000D03*
D11*
X104000000Y-134000000D03*
D10*
X104000000Y-136400000D03*
X105697056Y-132302944D03*
X105697056Y-135697056D03*
X106400000Y-134000000D03*
%TD*%
D13*
%TO.P,U1,1,3.3V*%
%TO.N,unconnected-(U1-3.3V-Pad1)*%
X159400000Y-112000000D03*
%TO.P,U1,2,EN*%
%TO.N,unconnected-(U1-EN-Pad2)*%
X156860000Y-112000000D03*
%TO.P,U1,3,SENSOR_VP*%
%TO.N,unconnected-(U1-SENSOR_VP-Pad3)*%
X154320000Y-112000000D03*
%TO.P,U1,4,SENSOR_VN*%
%TO.N,unconnected-(U1-SENSOR_VN-Pad4)*%
X151780000Y-112000000D03*
%TO.P,U1,5,IO34*%
%TO.N,unconnected-(U1-IO34-Pad5)*%
X149240000Y-112000000D03*
%TO.P,U1,6,IO35*%
%TO.N,unconnected-(U1-IO35-Pad6)*%
X146700000Y-112000000D03*
%TO.P,U1,7,IO32*%
%TO.N,unconnected-(U1-IO32-Pad7)*%
X144160000Y-112000000D03*
%TO.P,U1,8,IO33*%
%TO.N,unconnected-(U1-IO33-Pad8)*%
X141620000Y-112000000D03*
%TO.P,U1,9,IO25*%
%TO.N,unconnected-(U1-IO25-Pad9)*%
X139080000Y-112000000D03*
%TO.P,U1,10,IO26*%
%TO.N,unconnected-(U1-IO26-Pad10)*%
X136540000Y-112000000D03*
%TO.P,U1,11,IO27*%
%TO.N,unconnected-(U1-IO27-Pad11)*%
X134000000Y-112000000D03*
%TO.P,U1,12,IO14*%
%TO.N,unconnected-(U1-IO14-Pad12)*%
X131460000Y-112000000D03*
%TO.P,U1,13,IO12*%
%TO.N,unconnected-(U1-IO12-Pad13)*%
X128920000Y-112000000D03*
%TO.P,U1,14,GND*%
%TO.N,GND*%
X126380000Y-112000000D03*
%TO.P,U1,15,IO13*%
%TO.N,unconnected-(U1-IO13-Pad15)*%
X123840000Y-112000000D03*
%TO.P,U1,16,SD2*%
%TO.N,unconnected-(U1-SD2-Pad16)*%
X121300000Y-112000000D03*
%TO.P,U1,17,SD3*%
%TO.N,unconnected-(U1-SD3-Pad17)*%
X118760000Y-112000000D03*
%TO.P,U1,18,CMD*%
%TO.N,unconnected-(U1-CMD-Pad18)*%
X116220000Y-112000000D03*
%TO.P,U1,19,5V*%
%TO.N,Net-(U1-5V)*%
X113680000Y-112000000D03*
%TO.P,U1,20,GND*%
%TO.N,GND*%
X159400000Y-134860000D03*
%TO.P,U1,21,IO23*%
%TO.N,unconnected-(U1-IO23-Pad21)*%
X156860000Y-134860000D03*
%TO.P,U1,22,IO22*%
%TO.N,unconnected-(U1-IO22-Pad22)*%
X154320000Y-134860000D03*
%TO.P,U1,23,TXD0*%
%TO.N,unconnected-(U1-TXD0-Pad23)*%
X151780000Y-134860000D03*
%TO.P,U1,24,RXD0*%
%TO.N,unconnected-(U1-RXD0-Pad24)*%
X149240000Y-134860000D03*
%TO.P,U1,25,IO21*%
%TO.N,Net-(U1-IO21)*%
X146700000Y-134860000D03*
%TO.P,U1,26,GND*%
%TO.N,GND*%
X144160000Y-134860000D03*
%TO.P,U1,27,IO19*%
%TO.N,Net-(U1-IO19)*%
X141620000Y-134860000D03*
%TO.P,U1,28,IO18*%
%TO.N,Net-(U1-IO18)*%
X139080000Y-134860000D03*
%TO.P,U1,29,IO5*%
%TO.N,unconnected-(U1-IO5-Pad29)*%
X136540000Y-134860000D03*
%TO.P,U1,30,IO17*%
%TO.N,unconnected-(U1-IO17-Pad30)*%
X134000000Y-134860000D03*
%TO.P,U1,31,IO16*%
%TO.N,unconnected-(U1-IO16-Pad31)*%
X131460000Y-134860000D03*
%TO.P,U1,32,IO4*%
%TO.N,unconnected-(U1-IO4-Pad32)*%
X128920000Y-134860000D03*
%TO.P,U1,33,IO0*%
%TO.N,unconnected-(U1-IO0-Pad33)*%
X126380000Y-134860000D03*
%TO.P,U1,34,IO2*%
%TO.N,unconnected-(U1-IO2-Pad34)*%
X123840000Y-134860000D03*
%TO.P,U1,35,IO15*%
%TO.N,unconnected-(U1-IO15-Pad35)*%
X121300000Y-134860000D03*
%TO.P,U1,36,SD1*%
%TO.N,unconnected-(U1-SD1-Pad36)*%
X118760000Y-134860000D03*
%TO.P,U1,37,SD0*%
%TO.N,unconnected-(U1-SD0-Pad37)*%
X116220000Y-134860000D03*
%TO.P,U1,38,CLK*%
%TO.N,unconnected-(U1-CLK-Pad38)*%
X113680000Y-134860000D03*
%TD*%
D10*
%TO.P,H1,1,1*%
%TO.N,GND*%
X166600000Y-104000000D03*
X167302944Y-102302944D03*
X167302944Y-105697056D03*
X169000000Y-101600000D03*
D11*
X169000000Y-104000000D03*
D10*
X169000000Y-106400000D03*
X170697056Y-102302944D03*
X170697056Y-105697056D03*
X171400000Y-104000000D03*
%TD*%
D12*
%TO.P,SW2,1,1*%
%TO.N,Net-(U1-IO19)*%
X133250000Y-102000000D03*
X139750000Y-102000000D03*
%TO.P,SW2,2,2*%
%TO.N,GND*%
X133250000Y-106500000D03*
X139750000Y-106500000D03*
%TD*%
%TA.AperFunction,Conductor*%
%TO.N,GND*%
G36*
X102865130Y-135134870D02*
G01*
X103055819Y-135297733D01*
X101564648Y-136788903D01*
X101564649Y-136788904D01*
X101822206Y-136997468D01*
X102147456Y-137208689D01*
X102258001Y-137265015D01*
X102308797Y-137312990D01*
X102325592Y-137380811D01*
X102303055Y-137446945D01*
X102248340Y-137490397D01*
X102201706Y-137499500D01*
X100624500Y-137499500D01*
X100557461Y-137479815D01*
X100511706Y-137427011D01*
X100500500Y-137375500D01*
X100500500Y-135798293D01*
X100520185Y-135731254D01*
X100572989Y-135685499D01*
X100642147Y-135675555D01*
X100705703Y-135704580D01*
X100734985Y-135741999D01*
X100791307Y-135852538D01*
X100791308Y-135852541D01*
X101002531Y-136177793D01*
X101211095Y-136435350D01*
X101211096Y-136435350D01*
X102702266Y-134944180D01*
X102865130Y-135134870D01*
G37*
%TD.AperFunction*%
%TA.AperFunction,Conductor*%
G36*
X109195546Y-100520185D02*
G01*
X109241301Y-100572989D01*
X109251245Y-100642147D01*
X109222220Y-100705703D01*
X109187526Y-100733554D01*
X109184882Y-100734985D01*
X109176493Y-100739524D01*
X108980257Y-100892261D01*
X108811833Y-101075217D01*
X108675826Y-101283393D01*
X108575936Y-101511118D01*
X108514892Y-101752175D01*
X108514890Y-101752187D01*
X108494357Y-101999994D01*
X108494357Y-102000005D01*
X108514890Y-102247812D01*
X108514892Y-102247824D01*
X108575936Y-102488881D01*
X108675826Y-102716606D01*
X108811833Y-102924782D01*
X108811836Y-102924785D01*
X108980256Y-103107738D01*
X109176491Y-103260474D01*
X109395190Y-103378828D01*
X109630386Y-103459571D01*
X109875665Y-103500500D01*
X110124335Y-103500500D01*
X110369614Y-103459571D01*
X110604810Y-103378828D01*
X110823509Y-103260474D01*
X111019744Y-103107738D01*
X111188164Y-102924785D01*
X111324173Y-102716607D01*
X111424063Y-102488881D01*
X111485108Y-102247821D01*
X111488929Y-102201706D01*
X111505643Y-102000005D01*
X111505643Y-101999994D01*
X111485109Y-101752187D01*
X111485107Y-101752175D01*
X111424063Y-101511118D01*
X111324173Y-101283393D01*
X111188166Y-101075217D01*
X111166557Y-101051744D01*
X111019744Y-100892262D01*
X110823509Y-100739526D01*
X110823507Y-100739525D01*
X110823506Y-100739524D01*
X110815118Y-100734985D01*
X110812474Y-100733554D01*
X110762885Y-100684335D01*
X110747777Y-100616119D01*
X110771947Y-100550563D01*
X110827723Y-100508482D01*
X110871493Y-100500500D01*
X115628507Y-100500500D01*
X115695546Y-100520185D01*
X115741301Y-100572989D01*
X115751245Y-100642147D01*
X115722220Y-100705703D01*
X115687526Y-100733554D01*
X115684882Y-100734985D01*
X115676493Y-100739524D01*
X115480257Y-100892261D01*
X115311833Y-101075217D01*
X115175826Y-101283393D01*
X115075936Y-101511118D01*
X115014892Y-101752175D01*
X115014890Y-101752187D01*
X114994357Y-101999994D01*
X114994357Y-102000005D01*
X115014890Y-102247812D01*
X115014892Y-102247824D01*
X115075936Y-102488881D01*
X115175826Y-102716606D01*
X115311833Y-102924782D01*
X115311836Y-102924785D01*
X115480256Y-103107738D01*
X115676491Y-103260474D01*
X115895190Y-103378828D01*
X116130386Y-103459571D01*
X116375665Y-103500500D01*
X116624335Y-103500500D01*
X116869614Y-103459571D01*
X117104810Y-103378828D01*
X117323509Y-103260474D01*
X117519744Y-103107738D01*
X117688164Y-102924785D01*
X117824173Y-102716607D01*
X117924063Y-102488881D01*
X117985108Y-102247821D01*
X117988929Y-102201706D01*
X118005643Y-102000005D01*
X118005643Y-101999994D01*
X117985109Y-101752187D01*
X117985107Y-101752175D01*
X117924063Y-101511118D01*
X117824173Y-101283393D01*
X117688166Y-101075217D01*
X117666557Y-101051744D01*
X117519744Y-100892262D01*
X117323509Y-100739526D01*
X117323507Y-100739525D01*
X117323506Y-100739524D01*
X117315118Y-100734985D01*
X117312474Y-100733554D01*
X117262885Y-100684335D01*
X117247777Y-100616119D01*
X117271947Y-100550563D01*
X117327723Y-100508482D01*
X117371493Y-100500500D01*
X132378507Y-100500500D01*
X132445546Y-100520185D01*
X132491301Y-100572989D01*
X132501245Y-100642147D01*
X132472220Y-100705703D01*
X132437526Y-100733554D01*
X132434882Y-100734985D01*
X132426493Y-100739524D01*
X132230257Y-100892261D01*
X132061833Y-101075217D01*
X131925826Y-101283393D01*
X131825936Y-101511118D01*
X131764892Y-101752175D01*
X131764890Y-101752187D01*
X131744357Y-101999994D01*
X131744357Y-102000005D01*
X131764890Y-102247812D01*
X131764892Y-102247824D01*
X131825936Y-102488881D01*
X131925826Y-102716606D01*
X132061833Y-102924782D01*
X132061836Y-102924785D01*
X132230256Y-103107738D01*
X132426491Y-103260474D01*
X132645190Y-103378828D01*
X132880386Y-103459571D01*
X133125665Y-103500500D01*
X133374335Y-103500500D01*
X133619614Y-103459571D01*
X133854810Y-103378828D01*
X134073509Y-103260474D01*
X134269744Y-103107738D01*
X134438164Y-102924785D01*
X134574173Y-102716607D01*
X134674063Y-102488881D01*
X134735108Y-102247821D01*
X134738929Y-102201706D01*
X134755643Y-102000005D01*
X134755643Y-101999994D01*
X134735109Y-101752187D01*
X134735107Y-101752175D01*
X134674063Y-101511118D01*
X134574173Y-101283393D01*
X134438166Y-101075217D01*
X134416557Y-101051744D01*
X134269744Y-100892262D01*
X134073509Y-100739526D01*
X134073507Y-100739525D01*
X134073506Y-100739524D01*
X134065118Y-100734985D01*
X134062474Y-100733554D01*
X134012885Y-100684335D01*
X133997777Y-100616119D01*
X134021947Y-100550563D01*
X134077723Y-100508482D01*
X134121493Y-100500500D01*
X138878507Y-100500500D01*
X138945546Y-100520185D01*
X138991301Y-100572989D01*
X139001245Y-100642147D01*
X138972220Y-100705703D01*
X138937526Y-100733554D01*
X138934882Y-100734985D01*
X138926493Y-100739524D01*
X138730257Y-100892261D01*
X138561833Y-101075217D01*
X138425826Y-101283393D01*
X138325936Y-101511118D01*
X138264892Y-101752175D01*
X138264890Y-101752187D01*
X138244357Y-101999994D01*
X138244357Y-102000005D01*
X138264890Y-102247812D01*
X138264892Y-102247824D01*
X138325936Y-102488881D01*
X138425826Y-102716606D01*
X138561833Y-102924782D01*
X138561836Y-102924785D01*
X138730256Y-103107738D01*
X138926491Y-103260474D01*
X139145190Y-103378828D01*
X139380386Y-103459571D01*
X139625665Y-103500500D01*
X139874335Y-103500500D01*
X140119614Y-103459571D01*
X140354810Y-103378828D01*
X140573509Y-103260474D01*
X140769744Y-103107738D01*
X140938164Y-102924785D01*
X141074173Y-102716607D01*
X141174063Y-102488881D01*
X141235108Y-102247821D01*
X141238929Y-102201706D01*
X141255643Y-102000005D01*
X141255643Y-101999994D01*
X141235109Y-101752187D01*
X141235107Y-101752175D01*
X141174063Y-101511118D01*
X141074173Y-101283393D01*
X140938166Y-101075217D01*
X140916557Y-101051744D01*
X140769744Y-100892262D01*
X140573509Y-100739526D01*
X140573507Y-100739525D01*
X140573506Y-100739524D01*
X140565118Y-100734985D01*
X140562474Y-100733554D01*
X140512885Y-100684335D01*
X140497777Y-100616119D01*
X140521947Y-100550563D01*
X140577723Y-100508482D01*
X140621493Y-100500500D01*
X155628507Y-100500500D01*
X155695546Y-100520185D01*
X155741301Y-100572989D01*
X155751245Y-100642147D01*
X155722220Y-100705703D01*
X155687526Y-100733554D01*
X155684882Y-100734985D01*
X155676493Y-100739524D01*
X155480257Y-100892261D01*
X155311833Y-101075217D01*
X155175826Y-101283393D01*
X155075936Y-101511118D01*
X155014892Y-101752175D01*
X155014890Y-101752187D01*
X154994357Y-101999994D01*
X154994357Y-102000005D01*
X155014890Y-102247812D01*
X155014892Y-102247824D01*
X155075936Y-102488881D01*
X155175826Y-102716606D01*
X155311833Y-102924782D01*
X155311836Y-102924785D01*
X155480256Y-103107738D01*
X155676491Y-103260474D01*
X155895190Y-103378828D01*
X156130386Y-103459571D01*
X156375665Y-103500500D01*
X156624335Y-103500500D01*
X156869614Y-103459571D01*
X157104810Y-103378828D01*
X157323509Y-103260474D01*
X157519744Y-103107738D01*
X157688164Y-102924785D01*
X157824173Y-102716607D01*
X157924063Y-102488881D01*
X157985108Y-102247821D01*
X157988929Y-102201706D01*
X158005643Y-102000005D01*
X158005643Y-101999994D01*
X157985109Y-101752187D01*
X157985107Y-101752175D01*
X157924063Y-101511118D01*
X157824173Y-101283393D01*
X157688166Y-101075217D01*
X157666557Y-101051744D01*
X157519744Y-100892262D01*
X157323509Y-100739526D01*
X157323507Y-100739525D01*
X157323506Y-100739524D01*
X157315118Y-100734985D01*
X157312474Y-100733554D01*
X157262885Y-100684335D01*
X157247777Y-100616119D01*
X157271947Y-100550563D01*
X157327723Y-100508482D01*
X157371493Y-100500500D01*
X162128507Y-100500500D01*
X162195546Y-100520185D01*
X162241301Y-100572989D01*
X162251245Y-100642147D01*
X162222220Y-100705703D01*
X162187526Y-100733554D01*
X162184882Y-100734985D01*
X162176493Y-100739524D01*
X161980257Y-100892261D01*
X161811833Y-101075217D01*
X161675826Y-101283393D01*
X161575936Y-101511118D01*
X161514892Y-101752175D01*
X161514890Y-101752187D01*
X161494357Y-101999994D01*
X161494357Y-102000005D01*
X161514890Y-102247812D01*
X161514892Y-102247824D01*
X161575936Y-102488881D01*
X161675826Y-102716606D01*
X161811833Y-102924782D01*
X161811836Y-102924785D01*
X161980256Y-103107738D01*
X162176491Y-103260474D01*
X162395190Y-103378828D01*
X162630386Y-103459571D01*
X162875665Y-103500500D01*
X163124335Y-103500500D01*
X163369614Y-103459571D01*
X163604810Y-103378828D01*
X163823509Y-103260474D01*
X164019744Y-103107738D01*
X164188164Y-102924785D01*
X164324173Y-102716607D01*
X164424063Y-102488881D01*
X164485108Y-102247821D01*
X164488929Y-102201706D01*
X164505643Y-102000005D01*
X164505643Y-101999994D01*
X164485109Y-101752187D01*
X164485107Y-101752175D01*
X164424063Y-101511118D01*
X164324173Y-101283393D01*
X164188166Y-101075217D01*
X164166557Y-101051744D01*
X164019744Y-100892262D01*
X163823509Y-100739526D01*
X163823507Y-100739525D01*
X163823506Y-100739524D01*
X163815118Y-100734985D01*
X163812474Y-100733554D01*
X163762885Y-100684335D01*
X163747777Y-100616119D01*
X163771947Y-100550563D01*
X163827723Y-100508482D01*
X163871493Y-100500500D01*
X167201706Y-100500500D01*
X167268745Y-100520185D01*
X167314500Y-100572989D01*
X167324444Y-100642147D01*
X167295419Y-100705703D01*
X167258001Y-100734985D01*
X167147456Y-100791310D01*
X166822206Y-101002531D01*
X166564648Y-101211095D01*
X166564648Y-101211096D01*
X168055819Y-102702266D01*
X167865130Y-102865130D01*
X167702266Y-103055818D01*
X166211096Y-101564648D01*
X166211095Y-101564648D01*
X166002531Y-101822206D01*
X165791310Y-102147456D01*
X165615244Y-102493005D01*
X165476262Y-102855063D01*
X165375887Y-103229669D01*
X165375886Y-103229676D01*
X165315219Y-103612712D01*
X165294922Y-103999999D01*
X165294922Y-104000000D01*
X165315219Y-104387287D01*
X165375886Y-104770323D01*
X165375887Y-104770330D01*
X165476262Y-105144936D01*
X165615244Y-105506994D01*
X165791310Y-105852543D01*
X166002531Y-106177793D01*
X166211095Y-106435350D01*
X166211096Y-106435350D01*
X167702266Y-104944180D01*
X167865130Y-105134870D01*
X168055819Y-105297733D01*
X166564648Y-106788903D01*
X166564649Y-106788904D01*
X166822206Y-106997468D01*
X167147456Y-107208689D01*
X167493005Y-107384755D01*
X167855063Y-107523737D01*
X168229669Y-107624112D01*
X168229676Y-107624113D01*
X168612712Y-107684780D01*
X168999999Y-107705078D01*
X169000001Y-107705078D01*
X169387287Y-107684780D01*
X169770323Y-107624113D01*
X169770330Y-107624112D01*
X170144936Y-107523737D01*
X170506994Y-107384755D01*
X170852543Y-107208689D01*
X171177783Y-106997476D01*
X171177785Y-106997475D01*
X171435349Y-106788902D01*
X169944180Y-105297733D01*
X170134870Y-105134870D01*
X170297733Y-104944180D01*
X171788902Y-106435349D01*
X171997475Y-106177785D01*
X171997476Y-106177783D01*
X172208691Y-105852541D01*
X172208692Y-105852538D01*
X172265015Y-105741999D01*
X172312989Y-105691202D01*
X172380810Y-105674407D01*
X172446945Y-105696944D01*
X172490397Y-105751659D01*
X172499500Y-105798293D01*
X172499500Y-132201706D01*
X172479815Y-132268745D01*
X172427011Y-132314500D01*
X172357853Y-132324444D01*
X172294297Y-132295419D01*
X172265015Y-132258001D01*
X172208689Y-132147456D01*
X171997468Y-131822206D01*
X171788904Y-131564649D01*
X171788903Y-131564648D01*
X170297732Y-133055818D01*
X170134870Y-132865130D01*
X169944180Y-132702266D01*
X171435350Y-131211096D01*
X171435350Y-131211095D01*
X171177793Y-131002531D01*
X170852543Y-130791310D01*
X170506994Y-130615244D01*
X170144936Y-130476262D01*
X169770330Y-130375887D01*
X169770323Y-130375886D01*
X169387287Y-130315219D01*
X169000001Y-130294922D01*
X168999999Y-130294922D01*
X168612712Y-130315219D01*
X168229676Y-130375886D01*
X168229669Y-130375887D01*
X167855063Y-130476262D01*
X167493005Y-130615244D01*
X167147456Y-130791310D01*
X166822206Y-131002531D01*
X166564648Y-131211095D01*
X166564648Y-131211096D01*
X168055819Y-132702266D01*
X167865130Y-132865130D01*
X167702266Y-133055818D01*
X166211096Y-131564648D01*
X166211095Y-131564648D01*
X166002531Y-131822206D01*
X165791310Y-132147456D01*
X165615244Y-132493005D01*
X165476262Y-132855063D01*
X165375887Y-133229669D01*
X165375886Y-133229676D01*
X165315219Y-133612712D01*
X165294922Y-133999999D01*
X165294922Y-134000000D01*
X165315219Y-134387287D01*
X165375886Y-134770323D01*
X165375887Y-134770330D01*
X165476262Y-135144936D01*
X165615244Y-135506994D01*
X165791310Y-135852543D01*
X166002531Y-136177793D01*
X166211095Y-136435350D01*
X166211096Y-136435350D01*
X167702266Y-134944180D01*
X167865130Y-135134870D01*
X168055819Y-135297733D01*
X166564648Y-136788903D01*
X166564649Y-136788904D01*
X166822206Y-136997468D01*
X167147456Y-137208689D01*
X167258001Y-137265015D01*
X167308797Y-137312990D01*
X167325592Y-137380811D01*
X167303055Y-137446945D01*
X167248340Y-137490397D01*
X167201706Y-137499500D01*
X105798294Y-137499500D01*
X105731255Y-137479815D01*
X105685500Y-137427011D01*
X105675556Y-137357853D01*
X105704581Y-137294297D01*
X105741999Y-137265015D01*
X105852543Y-137208689D01*
X106177783Y-136997476D01*
X106177785Y-136997475D01*
X106435349Y-136788902D01*
X104944180Y-135297733D01*
X105134870Y-135134870D01*
X105297733Y-134944180D01*
X106788902Y-136435349D01*
X106997475Y-136177785D01*
X106997476Y-136177783D01*
X107208689Y-135852543D01*
X107384755Y-135506994D01*
X107523737Y-135144936D01*
X107600085Y-134860002D01*
X112412677Y-134860002D01*
X112431929Y-135080062D01*
X112431930Y-135080070D01*
X112489104Y-135293445D01*
X112489105Y-135293447D01*
X112489106Y-135293450D01*
X112522106Y-135364218D01*
X112582466Y-135493662D01*
X112582468Y-135493666D01*
X112709170Y-135674615D01*
X112709175Y-135674621D01*
X112865378Y-135830824D01*
X112865384Y-135830829D01*
X113046333Y-135957531D01*
X113046335Y-135957532D01*
X113046338Y-135957534D01*
X113246550Y-136050894D01*
X113459932Y-136108070D01*
X113617123Y-136121822D01*
X113679998Y-136127323D01*
X113680000Y-136127323D01*
X113680002Y-136127323D01*
X113735017Y-136122509D01*
X113900068Y-136108070D01*
X114113450Y-136050894D01*
X114313662Y-135957534D01*
X114494620Y-135830826D01*
X114650826Y-135674620D01*
X114777534Y-135493662D01*
X114837618Y-135364811D01*
X114883790Y-135312371D01*
X114950983Y-135293219D01*
X115017865Y-135313435D01*
X115062382Y-135364811D01*
X115122464Y-135493658D01*
X115122468Y-135493666D01*
X115249170Y-135674615D01*
X115249175Y-135674621D01*
X115405378Y-135830824D01*
X115405384Y-135830829D01*
X115586333Y-135957531D01*
X115586335Y-135957532D01*
X115586338Y-135957534D01*
X115786550Y-136050894D01*
X115999932Y-136108070D01*
X116157123Y-136121822D01*
X116219998Y-136127323D01*
X116220000Y-136127323D01*
X116220002Y-136127323D01*
X116275017Y-136122509D01*
X116440068Y-136108070D01*
X116653450Y-136050894D01*
X116853662Y-135957534D01*
X117034620Y-135830826D01*
X117190826Y-135674620D01*
X117317534Y-135493662D01*
X117377618Y-135364811D01*
X117423790Y-135312371D01*
X117490983Y-135293219D01*
X117557865Y-135313435D01*
X117602382Y-135364811D01*
X117662464Y-135493658D01*
X117662468Y-135493666D01*
X117789170Y-135674615D01*
X117789175Y-135674621D01*
X117945378Y-135830824D01*
X117945384Y-135830829D01*
X118126333Y-135957531D01*
X118126335Y-135957532D01*
X118126338Y-135957534D01*
X118326550Y-136050894D01*
X118539932Y-136108070D01*
X118697123Y-136121822D01*
X118759998Y-136127323D01*
X118760000Y-136127323D01*
X118760002Y-136127323D01*
X118815017Y-136122509D01*
X118980068Y-136108070D01*
X119193450Y-136050894D01*
X119393662Y-135957534D01*
X119574620Y-135830826D01*
X119730826Y-135674620D01*
X119857534Y-135493662D01*
X119917618Y-135364811D01*
X119963790Y-135312371D01*
X120030983Y-135293219D01*
X120097865Y-135313435D01*
X120142382Y-135364811D01*
X120202464Y-135493658D01*
X120202468Y-135493666D01*
X120329170Y-135674615D01*
X120329175Y-135674621D01*
X120485378Y-135830824D01*
X120485384Y-135830829D01*
X120666333Y-135957531D01*
X120666335Y-135957532D01*
X120666338Y-135957534D01*
X120866550Y-136050894D01*
X121079932Y-136108070D01*
X121237123Y-136121822D01*
X121299998Y-136127323D01*
X121300000Y-136127323D01*
X121300002Y-136127323D01*
X121355017Y-136122509D01*
X121520068Y-136108070D01*
X121733450Y-136050894D01*
X121933662Y-135957534D01*
X122114620Y-135830826D01*
X122270826Y-135674620D01*
X122397534Y-135493662D01*
X122457618Y-135364811D01*
X122503790Y-135312371D01*
X122570983Y-135293219D01*
X122637865Y-135313435D01*
X122682382Y-135364811D01*
X122742464Y-135493658D01*
X122742468Y-135493666D01*
X122869170Y-135674615D01*
X122869175Y-135674621D01*
X123025378Y-135830824D01*
X123025384Y-135830829D01*
X123206333Y-135957531D01*
X123206335Y-135957532D01*
X123206338Y-135957534D01*
X123406550Y-136050894D01*
X123619932Y-136108070D01*
X123777123Y-136121822D01*
X123839998Y-136127323D01*
X123840000Y-136127323D01*
X123840002Y-136127323D01*
X123895017Y-136122509D01*
X124060068Y-136108070D01*
X124273450Y-136050894D01*
X124473662Y-135957534D01*
X124654620Y-135830826D01*
X124810826Y-135674620D01*
X124937534Y-135493662D01*
X124997618Y-135364811D01*
X125043790Y-135312371D01*
X125110983Y-135293219D01*
X125177865Y-135313435D01*
X125222382Y-135364811D01*
X125282464Y-135493658D01*
X125282468Y-135493666D01*
X125409170Y-135674615D01*
X125409175Y-135674621D01*
X125565378Y-135830824D01*
X125565384Y-135830829D01*
X125746333Y-135957531D01*
X125746335Y-135957532D01*
X125746338Y-135957534D01*
X125946550Y-136050894D01*
X126159932Y-136108070D01*
X126317123Y-136121822D01*
X126379998Y-136127323D01*
X126380000Y-136127323D01*
X126380002Y-136127323D01*
X126435017Y-136122509D01*
X126600068Y-136108070D01*
X126813450Y-136050894D01*
X127013662Y-135957534D01*
X127194620Y-135830826D01*
X127350826Y-135674620D01*
X127477534Y-135493662D01*
X127537618Y-135364811D01*
X127583790Y-135312371D01*
X127650983Y-135293219D01*
X127717865Y-135313435D01*
X127762382Y-135364811D01*
X127822464Y-135493658D01*
X127822468Y-135493666D01*
X127949170Y-135674615D01*
X127949175Y-135674621D01*
X128105378Y-135830824D01*
X128105384Y-135830829D01*
X128286333Y-135957531D01*
X128286335Y-135957532D01*
X128286338Y-135957534D01*
X128486550Y-136050894D01*
X128699932Y-136108070D01*
X128857123Y-136121822D01*
X128919998Y-136127323D01*
X128920000Y-136127323D01*
X128920002Y-136127323D01*
X128975017Y-136122509D01*
X129140068Y-136108070D01*
X129353450Y-136050894D01*
X129553662Y-135957534D01*
X129734620Y-135830826D01*
X129890826Y-135674620D01*
X130017534Y-135493662D01*
X130077618Y-135364811D01*
X130123790Y-135312371D01*
X130190983Y-135293219D01*
X130257865Y-135313435D01*
X130302382Y-135364811D01*
X130362464Y-135493658D01*
X130362468Y-135493666D01*
X130489170Y-135674615D01*
X130489175Y-135674621D01*
X130645378Y-135830824D01*
X130645384Y-135830829D01*
X130826333Y-135957531D01*
X130826335Y-135957532D01*
X130826338Y-135957534D01*
X131026550Y-136050894D01*
X131239932Y-136108070D01*
X131397123Y-136121822D01*
X131459998Y-136127323D01*
X131460000Y-136127323D01*
X131460002Y-136127323D01*
X131515017Y-136122509D01*
X131680068Y-136108070D01*
X131893450Y-136050894D01*
X132093662Y-135957534D01*
X132274620Y-135830826D01*
X132430826Y-135674620D01*
X132557534Y-135493662D01*
X132617618Y-135364811D01*
X132663790Y-135312371D01*
X132730983Y-135293219D01*
X132797865Y-135313435D01*
X132842382Y-135364811D01*
X132902464Y-135493658D01*
X132902468Y-135493666D01*
X133029170Y-135674615D01*
X133029175Y-135674621D01*
X133185378Y-135830824D01*
X133185384Y-135830829D01*
X133366333Y-135957531D01*
X133366335Y-135957532D01*
X133366338Y-135957534D01*
X133566550Y-136050894D01*
X133779932Y-136108070D01*
X133937123Y-136121822D01*
X133999998Y-136127323D01*
X134000000Y-136127323D01*
X134000002Y-136127323D01*
X134055017Y-136122509D01*
X134220068Y-136108070D01*
X134433450Y-136050894D01*
X134633662Y-135957534D01*
X134814620Y-135830826D01*
X134970826Y-135674620D01*
X135097534Y-135493662D01*
X135157618Y-135364811D01*
X135203790Y-135312371D01*
X135270983Y-135293219D01*
X135337865Y-135313435D01*
X135382382Y-135364811D01*
X135442464Y-135493658D01*
X135442468Y-135493666D01*
X135569170Y-135674615D01*
X135569175Y-135674621D01*
X135725378Y-135830824D01*
X135725384Y-135830829D01*
X135906333Y-135957531D01*
X135906335Y-135957532D01*
X135906338Y-135957534D01*
X136106550Y-136050894D01*
X136319932Y-136108070D01*
X136477123Y-136121822D01*
X136539998Y-136127323D01*
X136540000Y-136127323D01*
X136540002Y-136127323D01*
X136595017Y-136122509D01*
X136760068Y-136108070D01*
X136973450Y-136050894D01*
X137173662Y-135957534D01*
X137354620Y-135830826D01*
X137510826Y-135674620D01*
X137637534Y-135493662D01*
X137697618Y-135364811D01*
X137743790Y-135312371D01*
X137810983Y-135293219D01*
X137877865Y-135313435D01*
X137922382Y-135364811D01*
X137982464Y-135493658D01*
X137982468Y-135493666D01*
X138109170Y-135674615D01*
X138109175Y-135674621D01*
X138265378Y-135830824D01*
X138265384Y-135830829D01*
X138446333Y-135957531D01*
X138446335Y-135957532D01*
X138446338Y-135957534D01*
X138646550Y-136050894D01*
X138859932Y-136108070D01*
X139017123Y-136121822D01*
X139079998Y-136127323D01*
X139080000Y-136127323D01*
X139080002Y-136127323D01*
X139135017Y-136122509D01*
X139300068Y-136108070D01*
X139513450Y-136050894D01*
X139713662Y-135957534D01*
X139894620Y-135830826D01*
X140050826Y-135674620D01*
X140177534Y-135493662D01*
X140237618Y-135364811D01*
X140283790Y-135312371D01*
X140350983Y-135293219D01*
X140417865Y-135313435D01*
X140462382Y-135364811D01*
X140522464Y-135493658D01*
X140522468Y-135493666D01*
X140649170Y-135674615D01*
X140649175Y-135674621D01*
X140805378Y-135830824D01*
X140805384Y-135830829D01*
X140986333Y-135957531D01*
X140986335Y-135957532D01*
X140986338Y-135957534D01*
X141186550Y-136050894D01*
X141399932Y-136108070D01*
X141557123Y-136121822D01*
X141619998Y-136127323D01*
X141620000Y-136127323D01*
X141620002Y-136127323D01*
X141675017Y-136122509D01*
X141840068Y-136108070D01*
X142053450Y-136050894D01*
X142253662Y-135957534D01*
X142434620Y-135830826D01*
X142590826Y-135674620D01*
X142717534Y-135493662D01*
X142777894Y-135364218D01*
X142824066Y-135311779D01*
X142891259Y-135292627D01*
X142958141Y-135312843D01*
X143002658Y-135364219D01*
X143062898Y-135493405D01*
X143062901Y-135493411D01*
X143108258Y-135558187D01*
X143108259Y-135558188D01*
X143775096Y-134891350D01*
X143775051Y-134891898D01*
X143806266Y-135015162D01*
X143875813Y-135121612D01*
X143976157Y-135199713D01*
X144096422Y-135241000D01*
X144132553Y-135241000D01*
X143461810Y-135911740D01*
X143526590Y-135957099D01*
X143526592Y-135957100D01*
X143726715Y-136050419D01*
X143726729Y-136050424D01*
X143940013Y-136107573D01*
X143940023Y-136107575D01*
X144159999Y-136126821D01*
X144160001Y-136126821D01*
X144379976Y-136107575D01*
X144379986Y-136107573D01*
X144593270Y-136050424D01*
X144593284Y-136050419D01*
X144793407Y-135957100D01*
X144793417Y-135957094D01*
X144858188Y-135911741D01*
X144187448Y-135241000D01*
X144191569Y-135241000D01*
X144285421Y-135225339D01*
X144397251Y-135164820D01*
X144483371Y-135071269D01*
X144534448Y-134954823D01*
X144540105Y-134886552D01*
X145211741Y-135558188D01*
X145257094Y-135493417D01*
X145257095Y-135493416D01*
X145317340Y-135364219D01*
X145363512Y-135311780D01*
X145430706Y-135292627D01*
X145497587Y-135312842D01*
X145542105Y-135364218D01*
X145602466Y-135493662D01*
X145602468Y-135493666D01*
X145729170Y-135674615D01*
X145729175Y-135674621D01*
X145885378Y-135830824D01*
X145885384Y-135830829D01*
X146066333Y-135957531D01*
X146066335Y-135957532D01*
X146066338Y-135957534D01*
X146266550Y-136050894D01*
X146479932Y-136108070D01*
X146637123Y-136121822D01*
X146699998Y-136127323D01*
X146700000Y-136127323D01*
X146700002Y-136127323D01*
X146755017Y-136122509D01*
X146920068Y-136108070D01*
X147133450Y-136050894D01*
X147333662Y-135957534D01*
X147514620Y-135830826D01*
X147670826Y-135674620D01*
X147797534Y-135493662D01*
X147857618Y-135364811D01*
X147903790Y-135312371D01*
X147970983Y-135293219D01*
X148037865Y-135313435D01*
X148082382Y-135364811D01*
X148142464Y-135493658D01*
X148142468Y-135493666D01*
X148269170Y-135674615D01*
X148269175Y-135674621D01*
X148425378Y-135830824D01*
X148425384Y-135830829D01*
X148606333Y-135957531D01*
X148606335Y-135957532D01*
X148606338Y-135957534D01*
X148806550Y-136050894D01*
X149019932Y-136108070D01*
X149177123Y-136121822D01*
X149239998Y-136127323D01*
X149240000Y-136127323D01*
X149240002Y-136127323D01*
X149295017Y-136122509D01*
X149460068Y-136108070D01*
X149673450Y-136050894D01*
X149873662Y-135957534D01*
X150054620Y-135830826D01*
X150210826Y-135674620D01*
X150337534Y-135493662D01*
X150397618Y-135364811D01*
X150443790Y-135312371D01*
X150510983Y-135293219D01*
X150577865Y-135313435D01*
X150622382Y-135364811D01*
X150682464Y-135493658D01*
X150682468Y-135493666D01*
X150809170Y-135674615D01*
X150809175Y-135674621D01*
X150965378Y-135830824D01*
X150965384Y-135830829D01*
X151146333Y-135957531D01*
X151146335Y-135957532D01*
X151146338Y-135957534D01*
X151346550Y-136050894D01*
X151559932Y-136108070D01*
X151717123Y-136121822D01*
X151779998Y-136127323D01*
X151780000Y-136127323D01*
X151780002Y-136127323D01*
X151835017Y-136122509D01*
X152000068Y-136108070D01*
X152213450Y-136050894D01*
X152413662Y-135957534D01*
X152594620Y-135830826D01*
X152750826Y-135674620D01*
X152877534Y-135493662D01*
X152937618Y-135364811D01*
X152983790Y-135312371D01*
X153050983Y-135293219D01*
X153117865Y-135313435D01*
X153162382Y-135364811D01*
X153222464Y-135493658D01*
X153222468Y-135493666D01*
X153349170Y-135674615D01*
X153349175Y-135674621D01*
X153505378Y-135830824D01*
X153505384Y-135830829D01*
X153686333Y-135957531D01*
X153686335Y-135957532D01*
X153686338Y-135957534D01*
X153886550Y-136050894D01*
X154099932Y-136108070D01*
X154257123Y-136121822D01*
X154319998Y-136127323D01*
X154320000Y-136127323D01*
X154320002Y-136127323D01*
X154375017Y-136122509D01*
X154540068Y-136108070D01*
X154753450Y-136050894D01*
X154953662Y-135957534D01*
X155134620Y-135830826D01*
X155290826Y-135674620D01*
X155417534Y-135493662D01*
X155477618Y-135364811D01*
X155523790Y-135312371D01*
X155590983Y-135293219D01*
X155657865Y-135313435D01*
X155702382Y-135364811D01*
X155762464Y-135493658D01*
X155762468Y-135493666D01*
X155889170Y-135674615D01*
X155889175Y-135674621D01*
X156045378Y-135830824D01*
X156045384Y-135830829D01*
X156226333Y-135957531D01*
X156226335Y-135957532D01*
X156226338Y-135957534D01*
X156426550Y-136050894D01*
X156639932Y-136108070D01*
X156797123Y-136121822D01*
X156859998Y-136127323D01*
X156860000Y-136127323D01*
X156860002Y-136127323D01*
X156915017Y-136122509D01*
X157080068Y-136108070D01*
X157293450Y-136050894D01*
X157493662Y-135957534D01*
X157674620Y-135830826D01*
X157830826Y-135674620D01*
X157957534Y-135493662D01*
X158017894Y-135364218D01*
X158064066Y-135311779D01*
X158131259Y-135292627D01*
X158198141Y-135312843D01*
X158242658Y-135364219D01*
X158302898Y-135493405D01*
X158302901Y-135493411D01*
X158348258Y-135558187D01*
X158348259Y-135558188D01*
X159015096Y-134891350D01*
X159015051Y-134891898D01*
X159046266Y-135015162D01*
X159115813Y-135121612D01*
X159216157Y-135199713D01*
X159336422Y-135241000D01*
X159372553Y-135241000D01*
X158701810Y-135911740D01*
X158766590Y-135957099D01*
X158766592Y-135957100D01*
X158966715Y-136050419D01*
X158966729Y-136050424D01*
X159180013Y-136107573D01*
X159180023Y-136107575D01*
X159399999Y-136126821D01*
X159400001Y-136126821D01*
X159619976Y-136107575D01*
X159619986Y-136107573D01*
X159833270Y-136050424D01*
X159833284Y-136050419D01*
X160033407Y-135957100D01*
X160033417Y-135957094D01*
X160098188Y-135911741D01*
X159427448Y-135241000D01*
X159431569Y-135241000D01*
X159525421Y-135225339D01*
X159637251Y-135164820D01*
X159723371Y-135071269D01*
X159774448Y-134954823D01*
X159780105Y-134886552D01*
X160451741Y-135558188D01*
X160497094Y-135493417D01*
X160497100Y-135493407D01*
X160590419Y-135293284D01*
X160590424Y-135293270D01*
X160647573Y-135079986D01*
X160647575Y-135079976D01*
X160666821Y-134860000D01*
X160666821Y-134859999D01*
X160647575Y-134640023D01*
X160647573Y-134640013D01*
X160590424Y-134426729D01*
X160590420Y-134426720D01*
X160497096Y-134226586D01*
X160451741Y-134161811D01*
X160451740Y-134161810D01*
X159784903Y-134828648D01*
X159784949Y-134828102D01*
X159753734Y-134704838D01*
X159684187Y-134598388D01*
X159583843Y-134520287D01*
X159463578Y-134479000D01*
X159427448Y-134479000D01*
X160098188Y-133808259D01*
X160098187Y-133808258D01*
X160033411Y-133762901D01*
X160033405Y-133762898D01*
X159833284Y-133669580D01*
X159833270Y-133669575D01*
X159619986Y-133612426D01*
X159619976Y-133612424D01*
X159400001Y-133593179D01*
X159399999Y-133593179D01*
X159180023Y-133612424D01*
X159180013Y-133612426D01*
X158966729Y-133669575D01*
X158966720Y-133669579D01*
X158766590Y-133762901D01*
X158701811Y-133808258D01*
X159372553Y-134479000D01*
X159368431Y-134479000D01*
X159274579Y-134494661D01*
X159162749Y-134555180D01*
X159076629Y-134648731D01*
X159025552Y-134765177D01*
X159019894Y-134833447D01*
X158348258Y-134161811D01*
X158302901Y-134226590D01*
X158242658Y-134355781D01*
X158196485Y-134408220D01*
X158129292Y-134427372D01*
X158062411Y-134407156D01*
X158017894Y-134355781D01*
X158002906Y-134323639D01*
X157957534Y-134226339D01*
X157830826Y-134045380D01*
X157674620Y-133889174D01*
X157674616Y-133889171D01*
X157674615Y-133889170D01*
X157493666Y-133762468D01*
X157493662Y-133762466D01*
X157464636Y-133748931D01*
X157293450Y-133669106D01*
X157293447Y-133669105D01*
X157293445Y-133669104D01*
X157080070Y-133611930D01*
X157080062Y-133611929D01*
X156860002Y-133592677D01*
X156859998Y-133592677D01*
X156639937Y-133611929D01*
X156639929Y-133611930D01*
X156426554Y-133669104D01*
X156426548Y-133669107D01*
X156226340Y-133762465D01*
X156226338Y-133762466D01*
X156045377Y-133889175D01*
X155889175Y-134045377D01*
X155762466Y-134226338D01*
X155762465Y-134226340D01*
X155702382Y-134355189D01*
X155656209Y-134407628D01*
X155589016Y-134426780D01*
X155522135Y-134406564D01*
X155477618Y-134355189D01*
X155459059Y-134315390D01*
X155417534Y-134226339D01*
X155290826Y-134045380D01*
X155134620Y-133889174D01*
X155134616Y-133889171D01*
X155134615Y-133889170D01*
X154953666Y-133762468D01*
X154953662Y-133762466D01*
X154924636Y-133748931D01*
X154753450Y-133669106D01*
X154753447Y-133669105D01*
X154753445Y-133669104D01*
X154540070Y-133611930D01*
X154540062Y-133611929D01*
X154320002Y-133592677D01*
X154319998Y-133592677D01*
X154099937Y-133611929D01*
X154099929Y-133611930D01*
X153886554Y-133669104D01*
X153886548Y-133669107D01*
X153686340Y-133762465D01*
X153686338Y-133762466D01*
X153505377Y-133889175D01*
X153349175Y-134045377D01*
X153222466Y-134226338D01*
X153222465Y-134226340D01*
X153162382Y-134355189D01*
X153116209Y-134407628D01*
X153049016Y-134426780D01*
X152982135Y-134406564D01*
X152937618Y-134355189D01*
X152919059Y-134315390D01*
X152877534Y-134226339D01*
X152750826Y-134045380D01*
X152594620Y-133889174D01*
X152594616Y-133889171D01*
X152594615Y-133889170D01*
X152413666Y-133762468D01*
X152413662Y-133762466D01*
X152384636Y-133748931D01*
X152213450Y-133669106D01*
X152213447Y-133669105D01*
X152213445Y-133669104D01*
X152000070Y-133611930D01*
X152000062Y-133611929D01*
X151780002Y-133592677D01*
X151779998Y-133592677D01*
X151559937Y-133611929D01*
X151559929Y-133611930D01*
X151346554Y-133669104D01*
X151346548Y-133669107D01*
X151146340Y-133762465D01*
X151146338Y-133762466D01*
X150965377Y-133889175D01*
X150809175Y-134045377D01*
X150682466Y-134226338D01*
X150682465Y-134226340D01*
X150622382Y-134355189D01*
X150576209Y-134407628D01*
X150509016Y-134426780D01*
X150442135Y-134406564D01*
X150397618Y-134355189D01*
X150379059Y-134315390D01*
X150337534Y-134226339D01*
X150210826Y-134045380D01*
X150054620Y-133889174D01*
X150054616Y-133889171D01*
X150054615Y-133889170D01*
X149873666Y-133762468D01*
X149873662Y-133762466D01*
X149844636Y-133748931D01*
X149673450Y-133669106D01*
X149673447Y-133669105D01*
X149673445Y-133669104D01*
X149460070Y-133611930D01*
X149460062Y-133611929D01*
X149240002Y-133592677D01*
X149239998Y-133592677D01*
X149019937Y-133611929D01*
X149019929Y-133611930D01*
X148806554Y-133669104D01*
X148806548Y-133669107D01*
X148606340Y-133762465D01*
X148606338Y-133762466D01*
X148425377Y-133889175D01*
X148269175Y-134045377D01*
X148142466Y-134226338D01*
X148142465Y-134226340D01*
X148082382Y-134355189D01*
X148036209Y-134407628D01*
X147969016Y-134426780D01*
X147902135Y-134406564D01*
X147857618Y-134355189D01*
X147839059Y-134315390D01*
X147797534Y-134226339D01*
X147670826Y-134045380D01*
X147514620Y-133889174D01*
X147514616Y-133889171D01*
X147514615Y-133889170D01*
X147333666Y-133762468D01*
X147333662Y-133762466D01*
X147304636Y-133748931D01*
X147133450Y-133669106D01*
X147133447Y-133669105D01*
X147133445Y-133669104D01*
X146920070Y-133611930D01*
X146920062Y-133611929D01*
X146700002Y-133592677D01*
X146699998Y-133592677D01*
X146479937Y-133611929D01*
X146479929Y-133611930D01*
X146266554Y-133669104D01*
X146266548Y-133669107D01*
X146066340Y-133762465D01*
X146066338Y-133762466D01*
X145885377Y-133889175D01*
X145729175Y-134045377D01*
X145602467Y-134226337D01*
X145542105Y-134355782D01*
X145495932Y-134408221D01*
X145428738Y-134427372D01*
X145361857Y-134407156D01*
X145317341Y-134355780D01*
X145257098Y-134226589D01*
X145257097Y-134226587D01*
X145211741Y-134161811D01*
X145211740Y-134161810D01*
X144544903Y-134828648D01*
X144544949Y-134828102D01*
X144513734Y-134704838D01*
X144444187Y-134598388D01*
X144343843Y-134520287D01*
X144223578Y-134479000D01*
X144187448Y-134479000D01*
X144858188Y-133808259D01*
X144858187Y-133808258D01*
X144793411Y-133762901D01*
X144793405Y-133762898D01*
X144593284Y-133669580D01*
X144593270Y-133669575D01*
X144379986Y-133612426D01*
X144379976Y-133612424D01*
X144160001Y-133593179D01*
X144159999Y-133593179D01*
X143940023Y-133612424D01*
X143940013Y-133612426D01*
X143726729Y-133669575D01*
X143726720Y-133669579D01*
X143526590Y-133762901D01*
X143461811Y-133808258D01*
X144132553Y-134479000D01*
X144128431Y-134479000D01*
X144034579Y-134494661D01*
X143922749Y-134555180D01*
X143836629Y-134648731D01*
X143785552Y-134765177D01*
X143779894Y-134833447D01*
X143108258Y-134161811D01*
X143062901Y-134226590D01*
X143002658Y-134355781D01*
X142956485Y-134408220D01*
X142889292Y-134427372D01*
X142822411Y-134407156D01*
X142777894Y-134355781D01*
X142762906Y-134323639D01*
X142717534Y-134226339D01*
X142590826Y-134045380D01*
X142434620Y-133889174D01*
X142434616Y-133889171D01*
X142434615Y-133889170D01*
X142253666Y-133762468D01*
X142253662Y-133762466D01*
X142224636Y-133748931D01*
X142053450Y-133669106D01*
X142053447Y-133669105D01*
X142053445Y-133669104D01*
X141840070Y-133611930D01*
X141840062Y-133611929D01*
X141620002Y-133592677D01*
X141619998Y-133592677D01*
X141399937Y-133611929D01*
X141399929Y-133611930D01*
X141186554Y-133669104D01*
X141186548Y-133669107D01*
X140986340Y-133762465D01*
X140986338Y-133762466D01*
X140805377Y-133889175D01*
X140649175Y-134045377D01*
X140522466Y-134226338D01*
X140522465Y-134226340D01*
X140462382Y-134355189D01*
X140416209Y-134407628D01*
X140349016Y-134426780D01*
X140282135Y-134406564D01*
X140237618Y-134355189D01*
X140219059Y-134315390D01*
X140177534Y-134226339D01*
X140050826Y-134045380D01*
X139894620Y-133889174D01*
X139894616Y-133889171D01*
X139894615Y-133889170D01*
X139713666Y-133762468D01*
X139713662Y-133762466D01*
X139684636Y-133748931D01*
X139513450Y-133669106D01*
X139513447Y-133669105D01*
X139513445Y-133669104D01*
X139300070Y-133611930D01*
X139300062Y-133611929D01*
X139080002Y-133592677D01*
X139079998Y-133592677D01*
X138859937Y-133611929D01*
X138859929Y-133611930D01*
X138646554Y-133669104D01*
X138646548Y-133669107D01*
X138446340Y-133762465D01*
X138446338Y-133762466D01*
X138265377Y-133889175D01*
X138109175Y-134045377D01*
X137982466Y-134226338D01*
X137982465Y-134226340D01*
X137922382Y-134355189D01*
X137876209Y-134407628D01*
X137809016Y-134426780D01*
X137742135Y-134406564D01*
X137697618Y-134355189D01*
X137679059Y-134315390D01*
X137637534Y-134226339D01*
X137510826Y-134045380D01*
X137354620Y-133889174D01*
X137354616Y-133889171D01*
X137354615Y-133889170D01*
X137173666Y-133762468D01*
X137173662Y-133762466D01*
X137144636Y-133748931D01*
X136973450Y-133669106D01*
X136973447Y-133669105D01*
X136973445Y-133669104D01*
X136760070Y-133611930D01*
X136760062Y-133611929D01*
X136540002Y-133592677D01*
X136539998Y-133592677D01*
X136319937Y-133611929D01*
X136319929Y-133611930D01*
X136106554Y-133669104D01*
X136106548Y-133669107D01*
X135906340Y-133762465D01*
X135906338Y-133762466D01*
X135725377Y-133889175D01*
X135569175Y-134045377D01*
X135442466Y-134226338D01*
X135442465Y-134226340D01*
X135382382Y-134355189D01*
X135336209Y-134407628D01*
X135269016Y-134426780D01*
X135202135Y-134406564D01*
X135157618Y-134355189D01*
X135139059Y-134315390D01*
X135097534Y-134226339D01*
X134970826Y-134045380D01*
X134814620Y-133889174D01*
X134814616Y-133889171D01*
X134814615Y-133889170D01*
X134633666Y-133762468D01*
X134633662Y-133762466D01*
X134604636Y-133748931D01*
X134433450Y-133669106D01*
X134433447Y-133669105D01*
X134433445Y-133669104D01*
X134220070Y-133611930D01*
X134220062Y-133611929D01*
X134000002Y-133592677D01*
X133999998Y-133592677D01*
X133779937Y-133611929D01*
X133779929Y-133611930D01*
X133566554Y-133669104D01*
X133566548Y-133669107D01*
X133366340Y-133762465D01*
X133366338Y-133762466D01*
X133185377Y-133889175D01*
X133029175Y-134045377D01*
X132902466Y-134226338D01*
X132902465Y-134226340D01*
X132842382Y-134355189D01*
X132796209Y-134407628D01*
X132729016Y-134426780D01*
X132662135Y-134406564D01*
X132617618Y-134355189D01*
X132599059Y-134315390D01*
X132557534Y-134226339D01*
X132430826Y-134045380D01*
X132274620Y-133889174D01*
X132274616Y-133889171D01*
X132274615Y-133889170D01*
X132093666Y-133762468D01*
X132093662Y-133762466D01*
X132064636Y-133748931D01*
X131893450Y-133669106D01*
X131893447Y-133669105D01*
X131893445Y-133669104D01*
X131680070Y-133611930D01*
X131680062Y-133611929D01*
X131460002Y-133592677D01*
X131459998Y-133592677D01*
X131239937Y-133611929D01*
X131239929Y-133611930D01*
X131026554Y-133669104D01*
X131026548Y-133669107D01*
X130826340Y-133762465D01*
X130826338Y-133762466D01*
X130645377Y-133889175D01*
X130489175Y-134045377D01*
X130362466Y-134226338D01*
X130362465Y-134226340D01*
X130302382Y-134355189D01*
X130256209Y-134407628D01*
X130189016Y-134426780D01*
X130122135Y-134406564D01*
X130077618Y-134355189D01*
X130059059Y-134315390D01*
X130017534Y-134226339D01*
X129890826Y-134045380D01*
X129734620Y-133889174D01*
X129734616Y-133889171D01*
X129734615Y-133889170D01*
X129553666Y-133762468D01*
X129553662Y-133762466D01*
X129524636Y-133748931D01*
X129353450Y-133669106D01*
X129353447Y-133669105D01*
X129353445Y-133669104D01*
X129140070Y-133611930D01*
X129140062Y-133611929D01*
X128920002Y-133592677D01*
X128919998Y-133592677D01*
X128699937Y-133611929D01*
X128699929Y-133611930D01*
X128486554Y-133669104D01*
X128486548Y-133669107D01*
X128286340Y-133762465D01*
X128286338Y-133762466D01*
X128105377Y-133889175D01*
X127949175Y-134045377D01*
X127822466Y-134226338D01*
X127822465Y-134226340D01*
X127762382Y-134355189D01*
X127716209Y-134407628D01*
X127649016Y-134426780D01*
X127582135Y-134406564D01*
X127537618Y-134355189D01*
X127519059Y-134315390D01*
X127477534Y-134226339D01*
X127350826Y-134045380D01*
X127194620Y-133889174D01*
X127194616Y-133889171D01*
X127194615Y-133889170D01*
X127013666Y-133762468D01*
X127013662Y-133762466D01*
X126984636Y-133748931D01*
X126813450Y-133669106D01*
X126813447Y-133669105D01*
X126813445Y-133669104D01*
X126600070Y-133611930D01*
X126600062Y-133611929D01*
X126380002Y-133592677D01*
X126379998Y-133592677D01*
X126159937Y-133611929D01*
X126159929Y-133611930D01*
X125946554Y-133669104D01*
X125946548Y-133669107D01*
X125746340Y-133762465D01*
X125746338Y-133762466D01*
X125565377Y-133889175D01*
X125409175Y-134045377D01*
X125282466Y-134226338D01*
X125282465Y-134226340D01*
X125222382Y-134355189D01*
X125176209Y-134407628D01*
X125109016Y-134426780D01*
X125042135Y-134406564D01*
X124997618Y-134355189D01*
X124979059Y-134315390D01*
X124937534Y-134226339D01*
X124810826Y-134045380D01*
X124654620Y-133889174D01*
X124654616Y-133889171D01*
X124654615Y-133889170D01*
X124473666Y-133762468D01*
X124473662Y-133762466D01*
X124444636Y-133748931D01*
X124273450Y-133669106D01*
X124273447Y-133669105D01*
X124273445Y-133669104D01*
X124060070Y-133611930D01*
X124060062Y-133611929D01*
X123840002Y-133592677D01*
X123839998Y-133592677D01*
X123619937Y-133611929D01*
X123619929Y-133611930D01*
X123406554Y-133669104D01*
X123406548Y-133669107D01*
X123206340Y-133762465D01*
X123206338Y-133762466D01*
X123025377Y-133889175D01*
X122869175Y-134045377D01*
X122742466Y-134226338D01*
X122742465Y-134226340D01*
X122682382Y-134355189D01*
X122636209Y-134407628D01*
X122569016Y-134426780D01*
X122502135Y-134406564D01*
X122457618Y-134355189D01*
X122439059Y-134315390D01*
X122397534Y-134226339D01*
X122270826Y-134045380D01*
X122114620Y-133889174D01*
X122114616Y-133889171D01*
X122114615Y-133889170D01*
X121933666Y-133762468D01*
X121933662Y-133762466D01*
X121904636Y-133748931D01*
X121733450Y-133669106D01*
X121733447Y-133669105D01*
X121733445Y-133669104D01*
X121520070Y-133611930D01*
X121520062Y-133611929D01*
X121300002Y-133592677D01*
X121299998Y-133592677D01*
X121079937Y-133611929D01*
X121079929Y-133611930D01*
X120866554Y-133669104D01*
X120866548Y-133669107D01*
X120666340Y-133762465D01*
X120666338Y-133762466D01*
X120485377Y-133889175D01*
X120329175Y-134045377D01*
X120202466Y-134226338D01*
X120202465Y-134226340D01*
X120142382Y-134355189D01*
X120096209Y-134407628D01*
X120029016Y-134426780D01*
X119962135Y-134406564D01*
X119917618Y-134355189D01*
X119899059Y-134315390D01*
X119857534Y-134226339D01*
X119730826Y-134045380D01*
X119574620Y-133889174D01*
X119574616Y-133889171D01*
X119574615Y-133889170D01*
X119393666Y-133762468D01*
X119393662Y-133762466D01*
X119364636Y-133748931D01*
X119193450Y-133669106D01*
X119193447Y-133669105D01*
X119193445Y-133669104D01*
X118980070Y-133611930D01*
X118980062Y-133611929D01*
X118760002Y-133592677D01*
X118759998Y-133592677D01*
X118539937Y-133611929D01*
X118539929Y-133611930D01*
X118326554Y-133669104D01*
X118326548Y-133669107D01*
X118126340Y-133762465D01*
X118126338Y-133762466D01*
X117945377Y-133889175D01*
X117789175Y-134045377D01*
X117662466Y-134226338D01*
X117662465Y-134226340D01*
X117602382Y-134355189D01*
X117556209Y-134407628D01*
X117489016Y-134426780D01*
X117422135Y-134406564D01*
X117377618Y-134355189D01*
X117359059Y-134315390D01*
X117317534Y-134226339D01*
X117190826Y-134045380D01*
X117034620Y-133889174D01*
X117034616Y-133889171D01*
X117034615Y-133889170D01*
X116853666Y-133762468D01*
X116853662Y-133762466D01*
X116824636Y-133748931D01*
X116653450Y-133669106D01*
X116653447Y-133669105D01*
X116653445Y-133669104D01*
X116440070Y-133611930D01*
X116440062Y-133611929D01*
X116220002Y-133592677D01*
X116219998Y-133592677D01*
X115999937Y-133611929D01*
X115999929Y-133611930D01*
X115786554Y-133669104D01*
X115786548Y-133669107D01*
X115586340Y-133762465D01*
X115586338Y-133762466D01*
X115405377Y-133889175D01*
X115249175Y-134045377D01*
X115122466Y-134226338D01*
X115122465Y-134226340D01*
X115062382Y-134355189D01*
X115016209Y-134407628D01*
X114949016Y-134426780D01*
X114882135Y-134406564D01*
X114837618Y-134355189D01*
X114819059Y-134315390D01*
X114777534Y-134226339D01*
X114650826Y-134045380D01*
X114494620Y-133889174D01*
X114494616Y-133889171D01*
X114494615Y-133889170D01*
X114313666Y-133762468D01*
X114313662Y-133762466D01*
X114284636Y-133748931D01*
X114113450Y-133669106D01*
X114113447Y-133669105D01*
X114113445Y-133669104D01*
X113900070Y-133611930D01*
X113900062Y-133611929D01*
X113680002Y-133592677D01*
X113679998Y-133592677D01*
X113459937Y-133611929D01*
X113459929Y-133611930D01*
X113246554Y-133669104D01*
X113246548Y-133669107D01*
X113046340Y-133762465D01*
X113046338Y-133762466D01*
X112865377Y-133889175D01*
X112709175Y-134045377D01*
X112582466Y-134226338D01*
X112582465Y-134226340D01*
X112489107Y-134426548D01*
X112489104Y-134426554D01*
X112431930Y-134639929D01*
X112431929Y-134639937D01*
X112412677Y-134859997D01*
X112412677Y-134860002D01*
X107600085Y-134860002D01*
X107624112Y-134770330D01*
X107624113Y-134770323D01*
X107684780Y-134387287D01*
X107705078Y-134000000D01*
X107705078Y-133999999D01*
X107684780Y-133612712D01*
X107624113Y-133229676D01*
X107624112Y-133229669D01*
X107523737Y-132855063D01*
X107384755Y-132493005D01*
X107208689Y-132147456D01*
X106997468Y-131822206D01*
X106788904Y-131564649D01*
X106788903Y-131564648D01*
X105297732Y-133055818D01*
X105134870Y-132865130D01*
X104944180Y-132702266D01*
X106435350Y-131211096D01*
X106435350Y-131211095D01*
X106177793Y-131002531D01*
X105852543Y-130791310D01*
X105506994Y-130615244D01*
X105144936Y-130476262D01*
X104770330Y-130375887D01*
X104770323Y-130375886D01*
X104387287Y-130315219D01*
X104000001Y-130294922D01*
X103999999Y-130294922D01*
X103612712Y-130315219D01*
X103229676Y-130375886D01*
X103229669Y-130375887D01*
X102855063Y-130476262D01*
X102493005Y-130615244D01*
X102147456Y-130791310D01*
X101822206Y-131002531D01*
X101564648Y-131211095D01*
X101564648Y-131211096D01*
X103055819Y-132702266D01*
X102865130Y-132865130D01*
X102702266Y-133055818D01*
X101211096Y-131564648D01*
X101211095Y-131564648D01*
X101002531Y-131822206D01*
X100791310Y-132147456D01*
X100734985Y-132258001D01*
X100687010Y-132308797D01*
X100619189Y-132325592D01*
X100553055Y-132303055D01*
X100509603Y-132248340D01*
X100500500Y-132201706D01*
X100500500Y-112000002D01*
X112412677Y-112000002D01*
X112431929Y-112220062D01*
X112431930Y-112220070D01*
X112489104Y-112433445D01*
X112489105Y-112433447D01*
X112489106Y-112433450D01*
X112522106Y-112504218D01*
X112582466Y-112633662D01*
X112582468Y-112633666D01*
X112709170Y-112814615D01*
X112709175Y-112814621D01*
X112865378Y-112970824D01*
X112865384Y-112970829D01*
X113046333Y-113097531D01*
X113046335Y-113097532D01*
X113046338Y-113097534D01*
X113246550Y-113190894D01*
X113459932Y-113248070D01*
X113617123Y-113261822D01*
X113679998Y-113267323D01*
X113680000Y-113267323D01*
X113680002Y-113267323D01*
X113735017Y-113262509D01*
X113900068Y-113248070D01*
X114113450Y-113190894D01*
X114313662Y-113097534D01*
X114494620Y-112970826D01*
X114650826Y-112814620D01*
X114777534Y-112633662D01*
X114837618Y-112504811D01*
X114883790Y-112452371D01*
X114950983Y-112433219D01*
X115017865Y-112453435D01*
X115062382Y-112504811D01*
X115122464Y-112633658D01*
X115122468Y-112633666D01*
X115249170Y-112814615D01*
X115249175Y-112814621D01*
X115405378Y-112970824D01*
X115405384Y-112970829D01*
X115586333Y-113097531D01*
X115586335Y-113097532D01*
X115586338Y-113097534D01*
X115786550Y-113190894D01*
X115999932Y-113248070D01*
X116157123Y-113261822D01*
X116219998Y-113267323D01*
X116220000Y-113267323D01*
X116220002Y-113267323D01*
X116275017Y-113262509D01*
X116440068Y-113248070D01*
X116653450Y-113190894D01*
X116853662Y-113097534D01*
X117034620Y-112970826D01*
X117190826Y-112814620D01*
X117317534Y-112633662D01*
X117377618Y-112504811D01*
X117423790Y-112452371D01*
X117490983Y-112433219D01*
X117557865Y-112453435D01*
X117602382Y-112504811D01*
X117662464Y-112633658D01*
X117662468Y-112633666D01*
X117789170Y-112814615D01*
X117789175Y-112814621D01*
X117945378Y-112970824D01*
X117945384Y-112970829D01*
X118126333Y-113097531D01*
X118126335Y-113097532D01*
X118126338Y-113097534D01*
X118326550Y-113190894D01*
X118539932Y-113248070D01*
X118697123Y-113261822D01*
X118759998Y-113267323D01*
X118760000Y-113267323D01*
X118760002Y-113267323D01*
X118815017Y-113262509D01*
X118980068Y-113248070D01*
X119193450Y-113190894D01*
X119393662Y-113097534D01*
X119574620Y-112970826D01*
X119730826Y-112814620D01*
X119857534Y-112633662D01*
X119917618Y-112504811D01*
X119963790Y-112452371D01*
X120030983Y-112433219D01*
X120097865Y-112453435D01*
X120142382Y-112504811D01*
X120202464Y-112633658D01*
X120202468Y-112633666D01*
X120329170Y-112814615D01*
X120329175Y-112814621D01*
X120485378Y-112970824D01*
X120485384Y-112970829D01*
X120666333Y-113097531D01*
X120666335Y-113097532D01*
X120666338Y-113097534D01*
X120866550Y-113190894D01*
X121079932Y-113248070D01*
X121237123Y-113261822D01*
X121299998Y-113267323D01*
X121300000Y-113267323D01*
X121300002Y-113267323D01*
X121355017Y-113262509D01*
X121520068Y-113248070D01*
X121733450Y-113190894D01*
X121933662Y-113097534D01*
X122114620Y-112970826D01*
X122270826Y-112814620D01*
X122397534Y-112633662D01*
X122457618Y-112504811D01*
X122503790Y-112452371D01*
X122570983Y-112433219D01*
X122637865Y-112453435D01*
X122682382Y-112504811D01*
X122742464Y-112633658D01*
X122742468Y-112633666D01*
X122869170Y-112814615D01*
X122869175Y-112814621D01*
X123025378Y-112970824D01*
X123025384Y-112970829D01*
X123206333Y-113097531D01*
X123206335Y-113097532D01*
X123206338Y-113097534D01*
X123406550Y-113190894D01*
X123619932Y-113248070D01*
X123777123Y-113261822D01*
X123839998Y-113267323D01*
X123840000Y-113267323D01*
X123840002Y-113267323D01*
X123895017Y-113262509D01*
X124060068Y-113248070D01*
X124273450Y-113190894D01*
X124473662Y-113097534D01*
X124654620Y-112970826D01*
X124810826Y-112814620D01*
X124937534Y-112633662D01*
X124997894Y-112504218D01*
X125044066Y-112451779D01*
X125111259Y-112432627D01*
X125178141Y-112452843D01*
X125222658Y-112504219D01*
X125282898Y-112633405D01*
X125282901Y-112633411D01*
X125328258Y-112698187D01*
X125328259Y-112698188D01*
X125995096Y-112031350D01*
X125995051Y-112031898D01*
X126026266Y-112155162D01*
X126095813Y-112261612D01*
X126196157Y-112339713D01*
X126316422Y-112381000D01*
X126352553Y-112381000D01*
X125681810Y-113051740D01*
X125746590Y-113097099D01*
X125746592Y-113097100D01*
X125946715Y-113190419D01*
X125946729Y-113190424D01*
X126160013Y-113247573D01*
X126160023Y-113247575D01*
X126379999Y-113266821D01*
X126380001Y-113266821D01*
X126599976Y-113247575D01*
X126599986Y-113247573D01*
X126813270Y-113190424D01*
X126813284Y-113190419D01*
X127013407Y-113097100D01*
X127013417Y-113097094D01*
X127078188Y-113051741D01*
X126407448Y-112381000D01*
X126411569Y-112381000D01*
X126505421Y-112365339D01*
X126617251Y-112304820D01*
X126703371Y-112211269D01*
X126754448Y-112094823D01*
X126760105Y-112026552D01*
X127431741Y-112698188D01*
X127477094Y-112633417D01*
X127477095Y-112633416D01*
X127537340Y-112504219D01*
X127583512Y-112451780D01*
X127650706Y-112432627D01*
X127717587Y-112452842D01*
X127762105Y-112504218D01*
X127822466Y-112633662D01*
X127822468Y-112633666D01*
X127949170Y-112814615D01*
X127949175Y-112814621D01*
X128105378Y-112970824D01*
X128105384Y-112970829D01*
X128286333Y-113097531D01*
X128286335Y-113097532D01*
X128286338Y-113097534D01*
X128486550Y-113190894D01*
X128699932Y-113248070D01*
X128857123Y-113261822D01*
X128919998Y-113267323D01*
X128920000Y-113267323D01*
X128920002Y-113267323D01*
X128975017Y-113262509D01*
X129140068Y-113248070D01*
X129353450Y-113190894D01*
X129553662Y-113097534D01*
X129734620Y-112970826D01*
X129890826Y-112814620D01*
X130017534Y-112633662D01*
X130077618Y-112504811D01*
X130123790Y-112452371D01*
X130190983Y-112433219D01*
X130257865Y-112453435D01*
X130302382Y-112504811D01*
X130362464Y-112633658D01*
X130362468Y-112633666D01*
X130489170Y-112814615D01*
X130489175Y-112814621D01*
X130645378Y-112970824D01*
X130645384Y-112970829D01*
X130826333Y-113097531D01*
X130826335Y-113097532D01*
X130826338Y-113097534D01*
X131026550Y-113190894D01*
X131239932Y-113248070D01*
X131397123Y-113261822D01*
X131459998Y-113267323D01*
X131460000Y-113267323D01*
X131460002Y-113267323D01*
X131515017Y-113262509D01*
X131680068Y-113248070D01*
X131893450Y-113190894D01*
X132093662Y-113097534D01*
X132274620Y-112970826D01*
X132430826Y-112814620D01*
X132557534Y-112633662D01*
X132617618Y-112504811D01*
X132663790Y-112452371D01*
X132730983Y-112433219D01*
X132797865Y-112453435D01*
X132842382Y-112504811D01*
X132902464Y-112633658D01*
X132902468Y-112633666D01*
X133029170Y-112814615D01*
X133029175Y-112814621D01*
X133185378Y-112970824D01*
X133185384Y-112970829D01*
X133366333Y-113097531D01*
X133366335Y-113097532D01*
X133366338Y-113097534D01*
X133566550Y-113190894D01*
X133779932Y-113248070D01*
X133937123Y-113261822D01*
X133999998Y-113267323D01*
X134000000Y-113267323D01*
X134000002Y-113267323D01*
X134055017Y-113262509D01*
X134220068Y-113248070D01*
X134433450Y-113190894D01*
X134633662Y-113097534D01*
X134814620Y-112970826D01*
X134970826Y-112814620D01*
X135097534Y-112633662D01*
X135157618Y-112504811D01*
X135203790Y-112452371D01*
X135270983Y-112433219D01*
X135337865Y-112453435D01*
X135382382Y-112504811D01*
X135442464Y-112633658D01*
X135442468Y-112633666D01*
X135569170Y-112814615D01*
X135569175Y-112814621D01*
X135725378Y-112970824D01*
X135725384Y-112970829D01*
X135906333Y-113097531D01*
X135906335Y-113097532D01*
X135906338Y-113097534D01*
X136106550Y-113190894D01*
X136319932Y-113248070D01*
X136477123Y-113261822D01*
X136539998Y-113267323D01*
X136540000Y-113267323D01*
X136540002Y-113267323D01*
X136595017Y-113262509D01*
X136760068Y-113248070D01*
X136973450Y-113190894D01*
X137173662Y-113097534D01*
X137354620Y-112970826D01*
X137510826Y-112814620D01*
X137637534Y-112633662D01*
X137697618Y-112504811D01*
X137743790Y-112452371D01*
X137810983Y-112433219D01*
X137877865Y-112453435D01*
X137922382Y-112504811D01*
X137982464Y-112633658D01*
X137982468Y-112633666D01*
X138109170Y-112814615D01*
X138109175Y-112814621D01*
X138265378Y-112970824D01*
X138265384Y-112970829D01*
X138446333Y-113097531D01*
X138446335Y-113097532D01*
X138446338Y-113097534D01*
X138646550Y-113190894D01*
X138859932Y-113248070D01*
X139017123Y-113261822D01*
X139079998Y-113267323D01*
X139080000Y-113267323D01*
X139080002Y-113267323D01*
X139135017Y-113262509D01*
X139300068Y-113248070D01*
X139513450Y-113190894D01*
X139713662Y-113097534D01*
X139894620Y-112970826D01*
X140050826Y-112814620D01*
X140177534Y-112633662D01*
X140237618Y-112504811D01*
X140283790Y-112452371D01*
X140350983Y-112433219D01*
X140417865Y-112453435D01*
X140462382Y-112504811D01*
X140522464Y-112633658D01*
X140522468Y-112633666D01*
X140649170Y-112814615D01*
X140649175Y-112814621D01*
X140805378Y-112970824D01*
X140805384Y-112970829D01*
X140986333Y-113097531D01*
X140986335Y-113097532D01*
X140986338Y-113097534D01*
X141186550Y-113190894D01*
X141399932Y-113248070D01*
X141557123Y-113261822D01*
X141619998Y-113267323D01*
X141620000Y-113267323D01*
X141620002Y-113267323D01*
X141675017Y-113262509D01*
X141840068Y-113248070D01*
X142053450Y-113190894D01*
X142253662Y-113097534D01*
X142434620Y-112970826D01*
X142590826Y-112814620D01*
X142717534Y-112633662D01*
X142777618Y-112504811D01*
X142823790Y-112452371D01*
X142890983Y-112433219D01*
X142957865Y-112453435D01*
X143002382Y-112504811D01*
X143062464Y-112633658D01*
X143062468Y-112633666D01*
X143189170Y-112814615D01*
X143189175Y-112814621D01*
X143345378Y-112970824D01*
X143345384Y-112970829D01*
X143526333Y-113097531D01*
X143526335Y-113097532D01*
X143526338Y-113097534D01*
X143726550Y-113190894D01*
X143939932Y-113248070D01*
X144097123Y-113261822D01*
X144159998Y-113267323D01*
X144160000Y-113267323D01*
X144160002Y-113267323D01*
X144215017Y-113262509D01*
X144380068Y-113248070D01*
X144593450Y-113190894D01*
X144793662Y-113097534D01*
X144974620Y-112970826D01*
X145130826Y-112814620D01*
X145257534Y-112633662D01*
X145317618Y-112504811D01*
X145363790Y-112452371D01*
X145430983Y-112433219D01*
X145497865Y-112453435D01*
X145542382Y-112504811D01*
X145602464Y-112633658D01*
X145602468Y-112633666D01*
X145729170Y-112814615D01*
X145729175Y-112814621D01*
X145885378Y-112970824D01*
X145885384Y-112970829D01*
X146066333Y-113097531D01*
X146066335Y-113097532D01*
X146066338Y-113097534D01*
X146266550Y-113190894D01*
X146479932Y-113248070D01*
X146637123Y-113261822D01*
X146699998Y-113267323D01*
X146700000Y-113267323D01*
X146700002Y-113267323D01*
X146755017Y-113262509D01*
X146920068Y-113248070D01*
X147133450Y-113190894D01*
X147333662Y-113097534D01*
X147514620Y-112970826D01*
X147670826Y-112814620D01*
X147797534Y-112633662D01*
X147857618Y-112504811D01*
X147903790Y-112452371D01*
X147970983Y-112433219D01*
X148037865Y-112453435D01*
X148082382Y-112504811D01*
X148142464Y-112633658D01*
X148142468Y-112633666D01*
X148269170Y-112814615D01*
X148269175Y-112814621D01*
X148425378Y-112970824D01*
X148425384Y-112970829D01*
X148606333Y-113097531D01*
X148606335Y-113097532D01*
X148606338Y-113097534D01*
X148806550Y-113190894D01*
X149019932Y-113248070D01*
X149177123Y-113261822D01*
X149239998Y-113267323D01*
X149240000Y-113267323D01*
X149240002Y-113267323D01*
X149295017Y-113262509D01*
X149460068Y-113248070D01*
X149673450Y-113190894D01*
X149873662Y-113097534D01*
X150054620Y-112970826D01*
X150210826Y-112814620D01*
X150337534Y-112633662D01*
X150397618Y-112504811D01*
X150443790Y-112452371D01*
X150510983Y-112433219D01*
X150577865Y-112453435D01*
X150622382Y-112504811D01*
X150682464Y-112633658D01*
X150682468Y-112633666D01*
X150809170Y-112814615D01*
X150809175Y-112814621D01*
X150965378Y-112970824D01*
X150965384Y-112970829D01*
X151146333Y-113097531D01*
X151146335Y-113097532D01*
X151146338Y-113097534D01*
X151346550Y-113190894D01*
X151559932Y-113248070D01*
X151717123Y-113261822D01*
X151779998Y-113267323D01*
X151780000Y-113267323D01*
X151780002Y-113267323D01*
X151835017Y-113262509D01*
X152000068Y-113248070D01*
X152213450Y-113190894D01*
X152413662Y-113097534D01*
X152594620Y-112970826D01*
X152750826Y-112814620D01*
X152877534Y-112633662D01*
X152937618Y-112504811D01*
X152983790Y-112452371D01*
X153050983Y-112433219D01*
X153117865Y-112453435D01*
X153162382Y-112504811D01*
X153222464Y-112633658D01*
X153222468Y-112633666D01*
X153349170Y-112814615D01*
X153349175Y-112814621D01*
X153505378Y-112970824D01*
X153505384Y-112970829D01*
X153686333Y-113097531D01*
X153686335Y-113097532D01*
X153686338Y-113097534D01*
X153886550Y-113190894D01*
X154099932Y-113248070D01*
X154257123Y-113261822D01*
X154319998Y-113267323D01*
X154320000Y-113267323D01*
X154320002Y-113267323D01*
X154375017Y-113262509D01*
X154540068Y-113248070D01*
X154753450Y-113190894D01*
X154953662Y-113097534D01*
X155134620Y-112970826D01*
X155290826Y-112814620D01*
X155417534Y-112633662D01*
X155477618Y-112504811D01*
X155523790Y-112452371D01*
X155590983Y-112433219D01*
X155657865Y-112453435D01*
X155702382Y-112504811D01*
X155762464Y-112633658D01*
X155762468Y-112633666D01*
X155889170Y-112814615D01*
X155889175Y-112814621D01*
X156045378Y-112970824D01*
X156045384Y-112970829D01*
X156226333Y-113097531D01*
X156226335Y-113097532D01*
X156226338Y-113097534D01*
X156426550Y-113190894D01*
X156639932Y-113248070D01*
X156797123Y-113261822D01*
X156859998Y-113267323D01*
X156860000Y-113267323D01*
X156860002Y-113267323D01*
X156915017Y-113262509D01*
X157080068Y-113248070D01*
X157293450Y-113190894D01*
X157493662Y-113097534D01*
X157674620Y-112970826D01*
X157830826Y-112814620D01*
X157957534Y-112633662D01*
X158017618Y-112504811D01*
X158063790Y-112452371D01*
X158130983Y-112433219D01*
X158197865Y-112453435D01*
X158242382Y-112504811D01*
X158302464Y-112633658D01*
X158302468Y-112633666D01*
X158429170Y-112814615D01*
X158429175Y-112814621D01*
X158585378Y-112970824D01*
X158585384Y-112970829D01*
X158766333Y-113097531D01*
X158766335Y-113097532D01*
X158766338Y-113097534D01*
X158966550Y-113190894D01*
X159179932Y-113248070D01*
X159337123Y-113261822D01*
X159399998Y-113267323D01*
X159400000Y-113267323D01*
X159400002Y-113267323D01*
X159455017Y-113262509D01*
X159620068Y-113248070D01*
X159833450Y-113190894D01*
X160033662Y-113097534D01*
X160214620Y-112970826D01*
X160370826Y-112814620D01*
X160497534Y-112633662D01*
X160590894Y-112433450D01*
X160648070Y-112220068D01*
X160667323Y-112000000D01*
X160664532Y-111968102D01*
X160653748Y-111844838D01*
X160648070Y-111779932D01*
X160590894Y-111566550D01*
X160497534Y-111366339D01*
X160370826Y-111185380D01*
X160214620Y-111029174D01*
X160214616Y-111029171D01*
X160214615Y-111029170D01*
X160033666Y-110902468D01*
X160033662Y-110902466D01*
X160033660Y-110902465D01*
X159833450Y-110809106D01*
X159833447Y-110809105D01*
X159833445Y-110809104D01*
X159620070Y-110751930D01*
X159620062Y-110751929D01*
X159400002Y-110732677D01*
X159399998Y-110732677D01*
X159179937Y-110751929D01*
X159179929Y-110751930D01*
X158966554Y-110809104D01*
X158966548Y-110809107D01*
X158766340Y-110902465D01*
X158766338Y-110902466D01*
X158585377Y-111029175D01*
X158429175Y-111185377D01*
X158302466Y-111366338D01*
X158302465Y-111366340D01*
X158242382Y-111495189D01*
X158196209Y-111547628D01*
X158129016Y-111566780D01*
X158062135Y-111546564D01*
X158017618Y-111495189D01*
X157957651Y-111366590D01*
X157957534Y-111366339D01*
X157830826Y-111185380D01*
X157674620Y-111029174D01*
X157674616Y-111029171D01*
X157674615Y-111029170D01*
X157493666Y-110902468D01*
X157493662Y-110902466D01*
X157493660Y-110902465D01*
X157293450Y-110809106D01*
X157293447Y-110809105D01*
X157293445Y-110809104D01*
X157080070Y-110751930D01*
X157080062Y-110751929D01*
X156860002Y-110732677D01*
X156859998Y-110732677D01*
X156639937Y-110751929D01*
X156639929Y-110751930D01*
X156426554Y-110809104D01*
X156426548Y-110809107D01*
X156226340Y-110902465D01*
X156226338Y-110902466D01*
X156045377Y-111029175D01*
X155889175Y-111185377D01*
X155762466Y-111366338D01*
X155762465Y-111366340D01*
X155702382Y-111495189D01*
X155656209Y-111547628D01*
X155589016Y-111566780D01*
X155522135Y-111546564D01*
X155477618Y-111495189D01*
X155417651Y-111366590D01*
X155417534Y-111366339D01*
X155290826Y-111185380D01*
X155134620Y-111029174D01*
X155134616Y-111029171D01*
X155134615Y-111029170D01*
X154953666Y-110902468D01*
X154953662Y-110902466D01*
X154953660Y-110902465D01*
X154753450Y-110809106D01*
X154753447Y-110809105D01*
X154753445Y-110809104D01*
X154540070Y-110751930D01*
X154540062Y-110751929D01*
X154320002Y-110732677D01*
X154319998Y-110732677D01*
X154099937Y-110751929D01*
X154099929Y-110751930D01*
X153886554Y-110809104D01*
X153886548Y-110809107D01*
X153686340Y-110902465D01*
X153686338Y-110902466D01*
X153505377Y-111029175D01*
X153349175Y-111185377D01*
X153222466Y-111366338D01*
X153222465Y-111366340D01*
X153162382Y-111495189D01*
X153116209Y-111547628D01*
X153049016Y-111566780D01*
X152982135Y-111546564D01*
X152937618Y-111495189D01*
X152877651Y-111366590D01*
X152877534Y-111366339D01*
X152750826Y-111185380D01*
X152594620Y-111029174D01*
X152594616Y-111029171D01*
X152594615Y-111029170D01*
X152413666Y-110902468D01*
X152413662Y-110902466D01*
X152413660Y-110902465D01*
X152213450Y-110809106D01*
X152213447Y-110809105D01*
X152213445Y-110809104D01*
X152000070Y-110751930D01*
X152000062Y-110751929D01*
X151780002Y-110732677D01*
X151779998Y-110732677D01*
X151559937Y-110751929D01*
X151559929Y-110751930D01*
X151346554Y-110809104D01*
X151346548Y-110809107D01*
X151146340Y-110902465D01*
X151146338Y-110902466D01*
X150965377Y-111029175D01*
X150809175Y-111185377D01*
X150682466Y-111366338D01*
X150682465Y-111366340D01*
X150622382Y-111495189D01*
X150576209Y-111547628D01*
X150509016Y-111566780D01*
X150442135Y-111546564D01*
X150397618Y-111495189D01*
X150337651Y-111366590D01*
X150337534Y-111366339D01*
X150210826Y-111185380D01*
X150054620Y-111029174D01*
X150054616Y-111029171D01*
X150054615Y-111029170D01*
X149873666Y-110902468D01*
X149873662Y-110902466D01*
X149873660Y-110902465D01*
X149673450Y-110809106D01*
X149673447Y-110809105D01*
X149673445Y-110809104D01*
X149460070Y-110751930D01*
X149460062Y-110751929D01*
X149240002Y-110732677D01*
X149239998Y-110732677D01*
X149019937Y-110751929D01*
X149019929Y-110751930D01*
X148806554Y-110809104D01*
X148806548Y-110809107D01*
X148606340Y-110902465D01*
X148606338Y-110902466D01*
X148425377Y-111029175D01*
X148269175Y-111185377D01*
X148142466Y-111366338D01*
X148142465Y-111366340D01*
X148082382Y-111495189D01*
X148036209Y-111547628D01*
X147969016Y-111566780D01*
X147902135Y-111546564D01*
X147857618Y-111495189D01*
X147797651Y-111366590D01*
X147797534Y-111366339D01*
X147670826Y-111185380D01*
X147514620Y-111029174D01*
X147514616Y-111029171D01*
X147514615Y-111029170D01*
X147333666Y-110902468D01*
X147333662Y-110902466D01*
X147333660Y-110902465D01*
X147133450Y-110809106D01*
X147133447Y-110809105D01*
X147133445Y-110809104D01*
X146920070Y-110751930D01*
X146920062Y-110751929D01*
X146700002Y-110732677D01*
X146699998Y-110732677D01*
X146479937Y-110751929D01*
X146479929Y-110751930D01*
X146266554Y-110809104D01*
X146266548Y-110809107D01*
X146066340Y-110902465D01*
X146066338Y-110902466D01*
X145885377Y-111029175D01*
X145729175Y-111185377D01*
X145602466Y-111366338D01*
X145602465Y-111366340D01*
X145542382Y-111495189D01*
X145496209Y-111547628D01*
X145429016Y-111566780D01*
X145362135Y-111546564D01*
X145317618Y-111495189D01*
X145257651Y-111366590D01*
X145257534Y-111366339D01*
X145130826Y-111185380D01*
X144974620Y-111029174D01*
X144974616Y-111029171D01*
X144974615Y-111029170D01*
X144793666Y-110902468D01*
X144793662Y-110902466D01*
X144793660Y-110902465D01*
X144593450Y-110809106D01*
X144593447Y-110809105D01*
X144593445Y-110809104D01*
X144380070Y-110751930D01*
X144380062Y-110751929D01*
X144160002Y-110732677D01*
X144159998Y-110732677D01*
X143939937Y-110751929D01*
X143939929Y-110751930D01*
X143726554Y-110809104D01*
X143726548Y-110809107D01*
X143526340Y-110902465D01*
X143526338Y-110902466D01*
X143345377Y-111029175D01*
X143189175Y-111185377D01*
X143062466Y-111366338D01*
X143062465Y-111366340D01*
X143002382Y-111495189D01*
X142956209Y-111547628D01*
X142889016Y-111566780D01*
X142822135Y-111546564D01*
X142777618Y-111495189D01*
X142717651Y-111366590D01*
X142717534Y-111366339D01*
X142590826Y-111185380D01*
X142434620Y-111029174D01*
X142434616Y-111029171D01*
X142434615Y-111029170D01*
X142253666Y-110902468D01*
X142253662Y-110902466D01*
X142253660Y-110902465D01*
X142053450Y-110809106D01*
X142053447Y-110809105D01*
X142053445Y-110809104D01*
X141840070Y-110751930D01*
X141840062Y-110751929D01*
X141620002Y-110732677D01*
X141619998Y-110732677D01*
X141399937Y-110751929D01*
X141399929Y-110751930D01*
X141186554Y-110809104D01*
X141186548Y-110809107D01*
X140986340Y-110902465D01*
X140986338Y-110902466D01*
X140805377Y-111029175D01*
X140649175Y-111185377D01*
X140522466Y-111366338D01*
X140522465Y-111366340D01*
X140462382Y-111495189D01*
X140416209Y-111547628D01*
X140349016Y-111566780D01*
X140282135Y-111546564D01*
X140237618Y-111495189D01*
X140177651Y-111366590D01*
X140177534Y-111366339D01*
X140050826Y-111185380D01*
X139894620Y-111029174D01*
X139894616Y-111029171D01*
X139894615Y-111029170D01*
X139713666Y-110902468D01*
X139713662Y-110902466D01*
X139713660Y-110902465D01*
X139513450Y-110809106D01*
X139513447Y-110809105D01*
X139513445Y-110809104D01*
X139300070Y-110751930D01*
X139300062Y-110751929D01*
X139080002Y-110732677D01*
X139079998Y-110732677D01*
X138859937Y-110751929D01*
X138859929Y-110751930D01*
X138646554Y-110809104D01*
X138646548Y-110809107D01*
X138446340Y-110902465D01*
X138446338Y-110902466D01*
X138265377Y-111029175D01*
X138109175Y-111185377D01*
X137982466Y-111366338D01*
X137982465Y-111366340D01*
X137922382Y-111495189D01*
X137876209Y-111547628D01*
X137809016Y-111566780D01*
X137742135Y-111546564D01*
X137697618Y-111495189D01*
X137637651Y-111366590D01*
X137637534Y-111366339D01*
X137510826Y-111185380D01*
X137354620Y-111029174D01*
X137354616Y-111029171D01*
X137354615Y-111029170D01*
X137173666Y-110902468D01*
X137173662Y-110902466D01*
X137173660Y-110902465D01*
X136973450Y-110809106D01*
X136973447Y-110809105D01*
X136973445Y-110809104D01*
X136760070Y-110751930D01*
X136760062Y-110751929D01*
X136540002Y-110732677D01*
X136539998Y-110732677D01*
X136319937Y-110751929D01*
X136319929Y-110751930D01*
X136106554Y-110809104D01*
X136106548Y-110809107D01*
X135906340Y-110902465D01*
X135906338Y-110902466D01*
X135725377Y-111029175D01*
X135569175Y-111185377D01*
X135442466Y-111366338D01*
X135442465Y-111366340D01*
X135382382Y-111495189D01*
X135336209Y-111547628D01*
X135269016Y-111566780D01*
X135202135Y-111546564D01*
X135157618Y-111495189D01*
X135097651Y-111366590D01*
X135097534Y-111366339D01*
X134970826Y-111185380D01*
X134814620Y-111029174D01*
X134814616Y-111029171D01*
X134814615Y-111029170D01*
X134633666Y-110902468D01*
X134633662Y-110902466D01*
X134633660Y-110902465D01*
X134433450Y-110809106D01*
X134433447Y-110809105D01*
X134433445Y-110809104D01*
X134220070Y-110751930D01*
X134220062Y-110751929D01*
X134000002Y-110732677D01*
X133999998Y-110732677D01*
X133779937Y-110751929D01*
X133779929Y-110751930D01*
X133566554Y-110809104D01*
X133566548Y-110809107D01*
X133366340Y-110902465D01*
X133366338Y-110902466D01*
X133185377Y-111029175D01*
X133029175Y-111185377D01*
X132902466Y-111366338D01*
X132902465Y-111366340D01*
X132842382Y-111495189D01*
X132796209Y-111547628D01*
X132729016Y-111566780D01*
X132662135Y-111546564D01*
X132617618Y-111495189D01*
X132557651Y-111366590D01*
X132557534Y-111366339D01*
X132430826Y-111185380D01*
X132274620Y-111029174D01*
X132274616Y-111029171D01*
X132274615Y-111029170D01*
X132093666Y-110902468D01*
X132093662Y-110902466D01*
X132093660Y-110902465D01*
X131893450Y-110809106D01*
X131893447Y-110809105D01*
X131893445Y-110809104D01*
X131680070Y-110751930D01*
X131680062Y-110751929D01*
X131460002Y-110732677D01*
X131459998Y-110732677D01*
X131239937Y-110751929D01*
X131239929Y-110751930D01*
X131026554Y-110809104D01*
X131026548Y-110809107D01*
X130826340Y-110902465D01*
X130826338Y-110902466D01*
X130645377Y-111029175D01*
X130489175Y-111185377D01*
X130362466Y-111366338D01*
X130362465Y-111366340D01*
X130302382Y-111495189D01*
X130256209Y-111547628D01*
X130189016Y-111566780D01*
X130122135Y-111546564D01*
X130077618Y-111495189D01*
X130017651Y-111366590D01*
X130017534Y-111366339D01*
X129890826Y-111185380D01*
X129734620Y-111029174D01*
X129734616Y-111029171D01*
X129734615Y-111029170D01*
X129553666Y-110902468D01*
X129553662Y-110902466D01*
X129553660Y-110902465D01*
X129353450Y-110809106D01*
X129353447Y-110809105D01*
X129353445Y-110809104D01*
X129140070Y-110751930D01*
X129140062Y-110751929D01*
X128920002Y-110732677D01*
X128919998Y-110732677D01*
X128699937Y-110751929D01*
X128699929Y-110751930D01*
X128486554Y-110809104D01*
X128486548Y-110809107D01*
X128286340Y-110902465D01*
X128286338Y-110902466D01*
X128105377Y-111029175D01*
X127949175Y-111185377D01*
X127822467Y-111366337D01*
X127762105Y-111495782D01*
X127715932Y-111548221D01*
X127648738Y-111567372D01*
X127581857Y-111547156D01*
X127537341Y-111495780D01*
X127477098Y-111366589D01*
X127477097Y-111366587D01*
X127431741Y-111301811D01*
X127431740Y-111301810D01*
X126764903Y-111968648D01*
X126764949Y-111968102D01*
X126733734Y-111844838D01*
X126664187Y-111738388D01*
X126563843Y-111660287D01*
X126443578Y-111619000D01*
X126407448Y-111619000D01*
X127078188Y-110948259D01*
X127078187Y-110948258D01*
X127013411Y-110902901D01*
X127013405Y-110902898D01*
X126813284Y-110809580D01*
X126813270Y-110809575D01*
X126599986Y-110752426D01*
X126599976Y-110752424D01*
X126380001Y-110733179D01*
X126379999Y-110733179D01*
X126160023Y-110752424D01*
X126160013Y-110752426D01*
X125946729Y-110809575D01*
X125946720Y-110809579D01*
X125746590Y-110902901D01*
X125681811Y-110948258D01*
X126352553Y-111619000D01*
X126348431Y-111619000D01*
X126254579Y-111634661D01*
X126142749Y-111695180D01*
X126056629Y-111788731D01*
X126005552Y-111905177D01*
X125999894Y-111973447D01*
X125328258Y-111301811D01*
X125282901Y-111366590D01*
X125222658Y-111495781D01*
X125176485Y-111548220D01*
X125109292Y-111567372D01*
X125042411Y-111547156D01*
X124997894Y-111495781D01*
X124937651Y-111366590D01*
X124937534Y-111366339D01*
X124810826Y-111185380D01*
X124654620Y-111029174D01*
X124654616Y-111029171D01*
X124654615Y-111029170D01*
X124473666Y-110902468D01*
X124473662Y-110902466D01*
X124473660Y-110902465D01*
X124273450Y-110809106D01*
X124273447Y-110809105D01*
X124273445Y-110809104D01*
X124060070Y-110751930D01*
X124060062Y-110751929D01*
X123840002Y-110732677D01*
X123839998Y-110732677D01*
X123619937Y-110751929D01*
X123619929Y-110751930D01*
X123406554Y-110809104D01*
X123406548Y-110809107D01*
X123206340Y-110902465D01*
X123206338Y-110902466D01*
X123025377Y-111029175D01*
X122869175Y-111185377D01*
X122742466Y-111366338D01*
X122742465Y-111366340D01*
X122682382Y-111495189D01*
X122636209Y-111547628D01*
X122569016Y-111566780D01*
X122502135Y-111546564D01*
X122457618Y-111495189D01*
X122397651Y-111366590D01*
X122397534Y-111366339D01*
X122270826Y-111185380D01*
X122114620Y-111029174D01*
X122114616Y-111029171D01*
X122114615Y-111029170D01*
X121933666Y-110902468D01*
X121933662Y-110902466D01*
X121933660Y-110902465D01*
X121733450Y-110809106D01*
X121733447Y-110809105D01*
X121733445Y-110809104D01*
X121520070Y-110751930D01*
X121520062Y-110751929D01*
X121300002Y-110732677D01*
X121299998Y-110732677D01*
X121079937Y-110751929D01*
X121079929Y-110751930D01*
X120866554Y-110809104D01*
X120866548Y-110809107D01*
X120666340Y-110902465D01*
X120666338Y-110902466D01*
X120485377Y-111029175D01*
X120329175Y-111185377D01*
X120202466Y-111366338D01*
X120202465Y-111366340D01*
X120142382Y-111495189D01*
X120096209Y-111547628D01*
X120029016Y-111566780D01*
X119962135Y-111546564D01*
X119917618Y-111495189D01*
X119857651Y-111366590D01*
X119857534Y-111366339D01*
X119730826Y-111185380D01*
X119574620Y-111029174D01*
X119574616Y-111029171D01*
X119574615Y-111029170D01*
X119393666Y-110902468D01*
X119393662Y-110902466D01*
X119393660Y-110902465D01*
X119193450Y-110809106D01*
X119193447Y-110809105D01*
X119193445Y-110809104D01*
X118980070Y-110751930D01*
X118980062Y-110751929D01*
X118760002Y-110732677D01*
X118759998Y-110732677D01*
X118539937Y-110751929D01*
X118539929Y-110751930D01*
X118326554Y-110809104D01*
X118326548Y-110809107D01*
X118126340Y-110902465D01*
X118126338Y-110902466D01*
X117945377Y-111029175D01*
X117789175Y-111185377D01*
X117662466Y-111366338D01*
X117662465Y-111366340D01*
X117602382Y-111495189D01*
X117556209Y-111547628D01*
X117489016Y-111566780D01*
X117422135Y-111546564D01*
X117377618Y-111495189D01*
X117317651Y-111366590D01*
X117317534Y-111366339D01*
X117190826Y-111185380D01*
X117034620Y-111029174D01*
X117034616Y-111029171D01*
X117034615Y-111029170D01*
X116853666Y-110902468D01*
X116853662Y-110902466D01*
X116853660Y-110902465D01*
X116653450Y-110809106D01*
X116653447Y-110809105D01*
X116653445Y-110809104D01*
X116440070Y-110751930D01*
X116440062Y-110751929D01*
X116220002Y-110732677D01*
X116219998Y-110732677D01*
X115999937Y-110751929D01*
X115999929Y-110751930D01*
X115786554Y-110809104D01*
X115786548Y-110809107D01*
X115586340Y-110902465D01*
X115586338Y-110902466D01*
X115405377Y-111029175D01*
X115249175Y-111185377D01*
X115122466Y-111366338D01*
X115122465Y-111366340D01*
X115062382Y-111495189D01*
X115016209Y-111547628D01*
X114949016Y-111566780D01*
X114882135Y-111546564D01*
X114837618Y-111495189D01*
X114777651Y-111366590D01*
X114777534Y-111366339D01*
X114650826Y-111185380D01*
X114494620Y-111029174D01*
X114494616Y-111029171D01*
X114494615Y-111029170D01*
X114313666Y-110902468D01*
X114313662Y-110902466D01*
X114313660Y-110902465D01*
X114113450Y-110809106D01*
X114113447Y-110809105D01*
X114113445Y-110809104D01*
X113900070Y-110751930D01*
X113900062Y-110751929D01*
X113680002Y-110732677D01*
X113679998Y-110732677D01*
X113459937Y-110751929D01*
X113459929Y-110751930D01*
X113246554Y-110809104D01*
X113246548Y-110809107D01*
X113046340Y-110902465D01*
X113046338Y-110902466D01*
X112865377Y-111029175D01*
X112709175Y-111185377D01*
X112582466Y-111366338D01*
X112582465Y-111366340D01*
X112489107Y-111566548D01*
X112489104Y-111566554D01*
X112431930Y-111779929D01*
X112431929Y-111779937D01*
X112412677Y-111999997D01*
X112412677Y-112000002D01*
X100500500Y-112000002D01*
X100500500Y-105798293D01*
X100520185Y-105731254D01*
X100572989Y-105685499D01*
X100642147Y-105675555D01*
X100705703Y-105704580D01*
X100734985Y-105741999D01*
X100791307Y-105852538D01*
X100791308Y-105852541D01*
X101002531Y-106177793D01*
X101211095Y-106435350D01*
X101211096Y-106435350D01*
X102702266Y-104944180D01*
X102865130Y-105134870D01*
X103055819Y-105297733D01*
X101564648Y-106788903D01*
X101564649Y-106788904D01*
X101822206Y-106997468D01*
X102147456Y-107208689D01*
X102493005Y-107384755D01*
X102855063Y-107523737D01*
X103229669Y-107624112D01*
X103229676Y-107624113D01*
X103612712Y-107684780D01*
X103999999Y-107705078D01*
X104000001Y-107705078D01*
X104387287Y-107684780D01*
X104770323Y-107624113D01*
X104770330Y-107624112D01*
X105144936Y-107523737D01*
X105506994Y-107384755D01*
X105852543Y-107208689D01*
X106177783Y-106997476D01*
X106177785Y-106997475D01*
X106435349Y-106788902D01*
X106146452Y-106500005D01*
X108494859Y-106500005D01*
X108515385Y-106747729D01*
X108515387Y-106747738D01*
X108576412Y-106988717D01*
X108676266Y-107216364D01*
X108776564Y-107369882D01*
X109474070Y-106672376D01*
X109476884Y-106685915D01*
X109546442Y-106820156D01*
X109649638Y-106930652D01*
X109778819Y-107009209D01*
X109830002Y-107023549D01*
X109129942Y-107723609D01*
X109176768Y-107760055D01*
X109176770Y-107760056D01*
X109395385Y-107878364D01*
X109395396Y-107878369D01*
X109630506Y-107959083D01*
X109875707Y-108000000D01*
X110124293Y-108000000D01*
X110369493Y-107959083D01*
X110604603Y-107878369D01*
X110604614Y-107878364D01*
X110823228Y-107760057D01*
X110823231Y-107760055D01*
X110870056Y-107723609D01*
X110171568Y-107025121D01*
X110288458Y-106974349D01*
X110405739Y-106878934D01*
X110492928Y-106755415D01*
X110523354Y-106669802D01*
X111223434Y-107369882D01*
X111323731Y-107216369D01*
X111423587Y-106988717D01*
X111484612Y-106747738D01*
X111484614Y-106747729D01*
X111505141Y-106500005D01*
X114994859Y-106500005D01*
X115015385Y-106747729D01*
X115015387Y-106747738D01*
X115076412Y-106988717D01*
X115176266Y-107216364D01*
X115276564Y-107369882D01*
X115974070Y-106672376D01*
X115976884Y-106685915D01*
X116046442Y-106820156D01*
X116149638Y-106930652D01*
X116278819Y-107009209D01*
X116330002Y-107023549D01*
X115629942Y-107723609D01*
X115676768Y-107760055D01*
X115676770Y-107760056D01*
X115895385Y-107878364D01*
X115895396Y-107878369D01*
X116130506Y-107959083D01*
X116375707Y-108000000D01*
X116624293Y-108000000D01*
X116869493Y-107959083D01*
X117104603Y-107878369D01*
X117104614Y-107878364D01*
X117323228Y-107760057D01*
X117323231Y-107760055D01*
X117370056Y-107723609D01*
X116671568Y-107025121D01*
X116788458Y-106974349D01*
X116905739Y-106878934D01*
X116992928Y-106755415D01*
X117023354Y-106669802D01*
X117723434Y-107369882D01*
X117823731Y-107216369D01*
X117923587Y-106988717D01*
X117984612Y-106747738D01*
X117984614Y-106747729D01*
X118005141Y-106500005D01*
X131744859Y-106500005D01*
X131765385Y-106747729D01*
X131765387Y-106747738D01*
X131826412Y-106988717D01*
X131926266Y-107216364D01*
X132026564Y-107369882D01*
X132724070Y-106672376D01*
X132726884Y-106685915D01*
X132796442Y-106820156D01*
X132899638Y-106930652D01*
X133028819Y-107009209D01*
X133080002Y-107023549D01*
X132379942Y-107723609D01*
X132426768Y-107760055D01*
X132426770Y-107760056D01*
X132645385Y-107878364D01*
X132645396Y-107878369D01*
X132880506Y-107959083D01*
X133125707Y-108000000D01*
X133374293Y-108000000D01*
X133619493Y-107959083D01*
X133854603Y-107878369D01*
X133854614Y-107878364D01*
X134073228Y-107760057D01*
X134073231Y-107760055D01*
X134120056Y-107723609D01*
X133421568Y-107025121D01*
X133538458Y-106974349D01*
X133655739Y-106878934D01*
X133742928Y-106755415D01*
X133773354Y-106669802D01*
X134473434Y-107369882D01*
X134573731Y-107216369D01*
X134673587Y-106988717D01*
X134734612Y-106747738D01*
X134734614Y-106747729D01*
X134755141Y-106500005D01*
X138244859Y-106500005D01*
X138265385Y-106747729D01*
X138265387Y-106747738D01*
X138326412Y-106988717D01*
X138426266Y-107216364D01*
X138526564Y-107369882D01*
X139224070Y-106672376D01*
X139226884Y-106685915D01*
X139296442Y-106820156D01*
X139399638Y-106930652D01*
X139528819Y-107009209D01*
X139580002Y-107023549D01*
X138879942Y-107723609D01*
X138926768Y-107760055D01*
X138926770Y-107760056D01*
X139145385Y-107878364D01*
X139145396Y-107878369D01*
X139380506Y-107959083D01*
X139625707Y-108000000D01*
X139874293Y-108000000D01*
X140119493Y-107959083D01*
X140354603Y-107878369D01*
X140354614Y-107878364D01*
X140573228Y-107760057D01*
X140573231Y-107760055D01*
X140620056Y-107723609D01*
X139921568Y-107025121D01*
X140038458Y-106974349D01*
X140155739Y-106878934D01*
X140242928Y-106755415D01*
X140273354Y-106669802D01*
X140973434Y-107369882D01*
X141073731Y-107216369D01*
X141173587Y-106988717D01*
X141234612Y-106747738D01*
X141234614Y-106747729D01*
X141255141Y-106500005D01*
X154994859Y-106500005D01*
X155015385Y-106747729D01*
X155015387Y-106747738D01*
X155076412Y-106988717D01*
X155176266Y-107216364D01*
X155276564Y-107369882D01*
X155974070Y-106672376D01*
X155976884Y-106685915D01*
X156046442Y-106820156D01*
X156149638Y-106930652D01*
X156278819Y-107009209D01*
X156330002Y-107023549D01*
X155629942Y-107723609D01*
X155676768Y-107760055D01*
X155676770Y-107760056D01*
X155895385Y-107878364D01*
X155895396Y-107878369D01*
X156130506Y-107959083D01*
X156375707Y-108000000D01*
X156624293Y-108000000D01*
X156869493Y-107959083D01*
X157104603Y-107878369D01*
X157104614Y-107878364D01*
X157323228Y-107760057D01*
X157323231Y-107760055D01*
X157370056Y-107723609D01*
X156671568Y-107025121D01*
X156788458Y-106974349D01*
X156905739Y-106878934D01*
X156992928Y-106755415D01*
X157023354Y-106669802D01*
X157723434Y-107369882D01*
X157823731Y-107216369D01*
X157923587Y-106988717D01*
X157984612Y-106747738D01*
X157984614Y-106747729D01*
X158005141Y-106500005D01*
X161494859Y-106500005D01*
X161515385Y-106747729D01*
X161515387Y-106747738D01*
X161576412Y-106988717D01*
X161676266Y-107216364D01*
X161776564Y-107369882D01*
X162474070Y-106672376D01*
X162476884Y-106685915D01*
X162546442Y-106820156D01*
X162649638Y-106930652D01*
X162778819Y-107009209D01*
X162830002Y-107023549D01*
X162129942Y-107723609D01*
X162176768Y-107760055D01*
X162176770Y-107760056D01*
X162395385Y-107878364D01*
X162395396Y-107878369D01*
X162630506Y-107959083D01*
X162875707Y-108000000D01*
X163124293Y-108000000D01*
X163369493Y-107959083D01*
X163604603Y-107878369D01*
X163604614Y-107878364D01*
X163823228Y-107760057D01*
X163823231Y-107760055D01*
X163870056Y-107723609D01*
X163171568Y-107025121D01*
X163288458Y-106974349D01*
X163405739Y-106878934D01*
X163492928Y-106755415D01*
X163523354Y-106669802D01*
X164223434Y-107369882D01*
X164323731Y-107216369D01*
X164423587Y-106988717D01*
X164484612Y-106747738D01*
X164484614Y-106747729D01*
X164505141Y-106500005D01*
X164505141Y-106499994D01*
X164484614Y-106252270D01*
X164484612Y-106252261D01*
X164423587Y-106011282D01*
X164323731Y-105783630D01*
X164223434Y-105630116D01*
X163525929Y-106327622D01*
X163523116Y-106314085D01*
X163453558Y-106179844D01*
X163350362Y-106069348D01*
X163221181Y-105990791D01*
X163169997Y-105976450D01*
X163870057Y-105276390D01*
X163870056Y-105276389D01*
X163823229Y-105239943D01*
X163604614Y-105121635D01*
X163604603Y-105121630D01*
X163369493Y-105040916D01*
X163124293Y-105000000D01*
X162875707Y-105000000D01*
X162630506Y-105040916D01*
X162395396Y-105121630D01*
X162395390Y-105121632D01*
X162176761Y-105239949D01*
X162129942Y-105276388D01*
X162129942Y-105276390D01*
X162828431Y-105974878D01*
X162711542Y-106025651D01*
X162594261Y-106121066D01*
X162507072Y-106244585D01*
X162476645Y-106330197D01*
X161776564Y-105630116D01*
X161676267Y-105783632D01*
X161576412Y-106011282D01*
X161515387Y-106252261D01*
X161515385Y-106252270D01*
X161494859Y-106499994D01*
X161494859Y-106500005D01*
X158005141Y-106500005D01*
X158005141Y-106499994D01*
X157984614Y-106252270D01*
X157984612Y-106252261D01*
X157923587Y-106011282D01*
X157823731Y-105783630D01*
X157723434Y-105630116D01*
X157025929Y-106327622D01*
X157023116Y-106314085D01*
X156953558Y-106179844D01*
X156850362Y-106069348D01*
X156721181Y-105990791D01*
X156669997Y-105976450D01*
X157370057Y-105276390D01*
X157370056Y-105276389D01*
X157323229Y-105239943D01*
X157104614Y-105121635D01*
X157104603Y-105121630D01*
X156869493Y-105040916D01*
X156624293Y-105000000D01*
X156375707Y-105000000D01*
X156130506Y-105040916D01*
X155895396Y-105121630D01*
X155895390Y-105121632D01*
X155676761Y-105239949D01*
X155629942Y-105276388D01*
X155629942Y-105276390D01*
X156328431Y-105974878D01*
X156211542Y-106025651D01*
X156094261Y-106121066D01*
X156007072Y-106244585D01*
X155976645Y-106330197D01*
X155276564Y-105630116D01*
X155176267Y-105783632D01*
X155076412Y-106011282D01*
X155015387Y-106252261D01*
X155015385Y-106252270D01*
X154994859Y-106499994D01*
X154994859Y-106500005D01*
X141255141Y-106500005D01*
X141255141Y-106499994D01*
X141234614Y-106252270D01*
X141234612Y-106252261D01*
X141173587Y-106011282D01*
X141073731Y-105783630D01*
X140973434Y-105630116D01*
X140275929Y-106327622D01*
X140273116Y-106314085D01*
X140203558Y-106179844D01*
X140100362Y-106069348D01*
X139971181Y-105990791D01*
X139919997Y-105976450D01*
X140620057Y-105276390D01*
X140620056Y-105276389D01*
X140573229Y-105239943D01*
X140354614Y-105121635D01*
X140354603Y-105121630D01*
X140119493Y-105040916D01*
X139874293Y-105000000D01*
X139625707Y-105000000D01*
X139380506Y-105040916D01*
X139145396Y-105121630D01*
X139145390Y-105121632D01*
X138926761Y-105239949D01*
X138879942Y-105276388D01*
X138879942Y-105276390D01*
X139578431Y-105974878D01*
X139461542Y-106025651D01*
X139344261Y-106121066D01*
X139257072Y-106244585D01*
X139226645Y-106330197D01*
X138526564Y-105630116D01*
X138426267Y-105783632D01*
X138326412Y-106011282D01*
X138265387Y-106252261D01*
X138265385Y-106252270D01*
X138244859Y-106499994D01*
X138244859Y-106500005D01*
X134755141Y-106500005D01*
X134755141Y-106499994D01*
X134734614Y-106252270D01*
X134734612Y-106252261D01*
X134673587Y-106011282D01*
X134573731Y-105783630D01*
X134473434Y-105630116D01*
X133775929Y-106327622D01*
X133773116Y-106314085D01*
X133703558Y-106179844D01*
X133600362Y-106069348D01*
X133471181Y-105990791D01*
X133419997Y-105976450D01*
X134120057Y-105276390D01*
X134120056Y-105276389D01*
X134073229Y-105239943D01*
X133854614Y-105121635D01*
X133854603Y-105121630D01*
X133619493Y-105040916D01*
X133374293Y-105000000D01*
X133125707Y-105000000D01*
X132880506Y-105040916D01*
X132645396Y-105121630D01*
X132645390Y-105121632D01*
X132426761Y-105239949D01*
X132379942Y-105276388D01*
X132379942Y-105276390D01*
X133078431Y-105974878D01*
X132961542Y-106025651D01*
X132844261Y-106121066D01*
X132757072Y-106244585D01*
X132726645Y-106330197D01*
X132026564Y-105630116D01*
X131926267Y-105783632D01*
X131826412Y-106011282D01*
X131765387Y-106252261D01*
X131765385Y-106252270D01*
X131744859Y-106499994D01*
X131744859Y-106500005D01*
X118005141Y-106500005D01*
X118005141Y-106499994D01*
X117984614Y-106252270D01*
X117984612Y-106252261D01*
X117923587Y-106011282D01*
X117823731Y-105783630D01*
X117723434Y-105630116D01*
X117025929Y-106327622D01*
X117023116Y-106314085D01*
X116953558Y-106179844D01*
X116850362Y-106069348D01*
X116721181Y-105990791D01*
X116669997Y-105976450D01*
X117370057Y-105276390D01*
X117370056Y-105276389D01*
X117323229Y-105239943D01*
X117104614Y-105121635D01*
X117104603Y-105121630D01*
X116869493Y-105040916D01*
X116624293Y-105000000D01*
X116375707Y-105000000D01*
X116130506Y-105040916D01*
X115895396Y-105121630D01*
X115895390Y-105121632D01*
X115676761Y-105239949D01*
X115629942Y-105276388D01*
X115629942Y-105276390D01*
X116328431Y-105974878D01*
X116211542Y-106025651D01*
X116094261Y-106121066D01*
X116007072Y-106244585D01*
X115976645Y-106330197D01*
X115276564Y-105630116D01*
X115176267Y-105783632D01*
X115076412Y-106011282D01*
X115015387Y-106252261D01*
X115015385Y-106252270D01*
X114994859Y-106499994D01*
X114994859Y-106500005D01*
X111505141Y-106500005D01*
X111505141Y-106499994D01*
X111484614Y-106252270D01*
X111484612Y-106252261D01*
X111423587Y-106011282D01*
X111323731Y-105783630D01*
X111223434Y-105630116D01*
X110525929Y-106327622D01*
X110523116Y-106314085D01*
X110453558Y-106179844D01*
X110350362Y-106069348D01*
X110221181Y-105990791D01*
X110169997Y-105976450D01*
X110870057Y-105276390D01*
X110870056Y-105276389D01*
X110823229Y-105239943D01*
X110604614Y-105121635D01*
X110604603Y-105121630D01*
X110369493Y-105040916D01*
X110124293Y-105000000D01*
X109875707Y-105000000D01*
X109630506Y-105040916D01*
X109395396Y-105121630D01*
X109395390Y-105121632D01*
X109176761Y-105239949D01*
X109129942Y-105276388D01*
X109129942Y-105276390D01*
X109828431Y-105974878D01*
X109711542Y-106025651D01*
X109594261Y-106121066D01*
X109507072Y-106244585D01*
X109476645Y-106330197D01*
X108776564Y-105630116D01*
X108676267Y-105783632D01*
X108576412Y-106011282D01*
X108515387Y-106252261D01*
X108515385Y-106252270D01*
X108494859Y-106499994D01*
X108494859Y-106500005D01*
X106146452Y-106500005D01*
X104944180Y-105297733D01*
X105134870Y-105134870D01*
X105297733Y-104944180D01*
X106788902Y-106435349D01*
X106997475Y-106177785D01*
X106997476Y-106177783D01*
X107208689Y-105852543D01*
X107384755Y-105506994D01*
X107523737Y-105144936D01*
X107624112Y-104770330D01*
X107624113Y-104770323D01*
X107684780Y-104387287D01*
X107705078Y-104000000D01*
X107705078Y-103999999D01*
X107684780Y-103612712D01*
X107624113Y-103229676D01*
X107624112Y-103229669D01*
X107523737Y-102855063D01*
X107384755Y-102493005D01*
X107208689Y-102147456D01*
X106997468Y-101822206D01*
X106788904Y-101564649D01*
X106788903Y-101564648D01*
X105297732Y-103055818D01*
X105134870Y-102865130D01*
X104944180Y-102702266D01*
X106435350Y-101211096D01*
X106435350Y-101211095D01*
X106177793Y-101002531D01*
X105852543Y-100791310D01*
X105741999Y-100734985D01*
X105691203Y-100687010D01*
X105674408Y-100619189D01*
X105696945Y-100553055D01*
X105751660Y-100509603D01*
X105798294Y-100500500D01*
X109128507Y-100500500D01*
X109195546Y-100520185D01*
G37*
%TD.AperFunction*%
%TA.AperFunction,Conductor*%
G36*
X171788902Y-136435349D02*
G01*
X171997475Y-136177785D01*
X171997476Y-136177783D01*
X172208691Y-135852541D01*
X172208692Y-135852538D01*
X172265015Y-135741999D01*
X172312989Y-135691202D01*
X172380810Y-135674407D01*
X172446945Y-135696944D01*
X172490397Y-135751659D01*
X172499500Y-135798293D01*
X172499500Y-137375500D01*
X172479815Y-137442539D01*
X172427011Y-137488294D01*
X172375500Y-137499500D01*
X170798294Y-137499500D01*
X170731255Y-137479815D01*
X170685500Y-137427011D01*
X170675556Y-137357853D01*
X170704581Y-137294297D01*
X170741999Y-137265015D01*
X170852543Y-137208689D01*
X171177783Y-136997476D01*
X171177785Y-136997475D01*
X171435349Y-136788902D01*
X169944180Y-135297733D01*
X170134870Y-135134870D01*
X170297733Y-134944180D01*
X171788902Y-136435349D01*
G37*
%TD.AperFunction*%
%TA.AperFunction,Conductor*%
G36*
X102268745Y-100520185D02*
G01*
X102314500Y-100572989D01*
X102324444Y-100642147D01*
X102295419Y-100705703D01*
X102258001Y-100734985D01*
X102147456Y-100791310D01*
X101822206Y-101002531D01*
X101564648Y-101211095D01*
X101564648Y-101211096D01*
X103055819Y-102702266D01*
X102865130Y-102865130D01*
X102702266Y-103055818D01*
X101211096Y-101564648D01*
X101211095Y-101564648D01*
X101002531Y-101822206D01*
X100791310Y-102147456D01*
X100734985Y-102258001D01*
X100687010Y-102308797D01*
X100619189Y-102325592D01*
X100553055Y-102303055D01*
X100509603Y-102248340D01*
X100500500Y-102201706D01*
X100500500Y-100624500D01*
X100520185Y-100557461D01*
X100572989Y-100511706D01*
X100624500Y-100500500D01*
X102201706Y-100500500D01*
X102268745Y-100520185D01*
G37*
%TD.AperFunction*%
%TA.AperFunction,Conductor*%
G36*
X172442539Y-100520185D02*
G01*
X172488294Y-100572989D01*
X172499500Y-100624500D01*
X172499500Y-102201706D01*
X172479815Y-102268745D01*
X172427011Y-102314500D01*
X172357853Y-102324444D01*
X172294297Y-102295419D01*
X172265015Y-102258001D01*
X172208689Y-102147456D01*
X171997468Y-101822206D01*
X171788904Y-101564649D01*
X171788903Y-101564648D01*
X170297732Y-103055818D01*
X170134870Y-102865130D01*
X169944180Y-102702266D01*
X171435350Y-101211096D01*
X171435350Y-101211095D01*
X171177793Y-101002531D01*
X170852543Y-100791310D01*
X170741999Y-100734985D01*
X170691203Y-100687010D01*
X170674408Y-100619189D01*
X170696945Y-100553055D01*
X170751660Y-100509603D01*
X170798294Y-100500500D01*
X172375500Y-100500500D01*
X172442539Y-100520185D01*
G37*
%TD.AperFunction*%
%TD*%
M02*
