M48
; DRILL file {KiCad 7.0.11+dfsg-1build4} date Fri 30 Jan 2026 16:30:37
; FORMAT={-:-/ absolute / inch / decimal}
; #@! TF.CreationDate,2026-01-30T16:30:37+11:00
; #@! TF.GenerationSoftware,Kicad,Pcbnew,7.0.11+dfsg-1build4
; #@! TF.FileFunction,Plated,1,2,PTH
FMAT,2
INCH
; #@! TA.AperFunction,Plated,PTH,ComponentDrill
T1C0.0197
; #@! TA.AperFunction,Plated,PTH,ComponentDrill
T2C0.0300
; #@! TA.AperFunction,Plated,PTH,ComponentDrill
T3C0.0433
; #@! TA.AperFunction,Plated,PTH,ComponentDrill
T4C0.1260
%
G90
G05
T1
X4.0Y-4.0945
X4.0Y-5.2756
X4.0277Y-4.0277
X4.0277Y-4.1613
X4.0277Y-5.2088
X4.0277Y-5.3424
X4.0945Y-4.0
X4.0945Y-4.189
X4.0945Y-5.1811
X4.0945Y-5.3701
X4.1613Y-4.0277
X4.1613Y-4.1613
X4.1613Y-5.2088
X4.1613Y-5.3424
X4.189Y-4.0945
X4.189Y-5.2756
X6.5591Y-4.0945
X6.5591Y-5.2756
X6.5867Y-4.0277
X6.5867Y-4.1613
X6.5867Y-5.2088
X6.5867Y-5.3424
X6.6535Y-4.0
X6.6535Y-4.189
X6.6535Y-5.1811
X6.6535Y-5.3701
X6.7204Y-4.0277
X6.7204Y-4.1613
X6.7204Y-5.2088
X6.7204Y-5.3424
X6.748Y-4.0945
X6.748Y-5.2756
T2
X4.4756Y-4.4094
X4.4756Y-5.3094
X4.5756Y-4.4094
X4.5756Y-5.3094
X4.6756Y-4.4094
X4.6756Y-5.3094
X4.7756Y-4.4094
X4.7756Y-5.3094
X4.8756Y-4.4094
X4.8756Y-5.3094
X4.9756Y-4.4094
X4.9756Y-5.3094
X5.0756Y-4.4094
X5.0756Y-5.3094
X5.1756Y-4.4094
X5.1756Y-5.3094
X5.2756Y-4.4094
X5.2756Y-5.3094
X5.3756Y-4.4094
X5.3756Y-5.3094
X5.4756Y-4.4094
X5.4756Y-5.3094
X5.5756Y-4.4094
X5.5756Y-5.3094
X5.6756Y-4.4094
X5.6756Y-5.3094
X5.7756Y-4.4094
X5.7756Y-5.3094
X5.8756Y-4.4094
X5.8756Y-5.3094
X5.9756Y-4.4094
X5.9756Y-5.3094
X6.0756Y-4.4094
X6.0756Y-5.3094
X6.1756Y-4.4094
X6.1756Y-5.3094
X6.2756Y-4.4094
X6.2756Y-5.3094
T3
X4.3307Y-4.0157
X4.3307Y-4.1929
X4.5866Y-4.0157
X4.5866Y-4.1929
X5.2461Y-4.0157
X5.2461Y-4.1929
X5.502Y-4.0157
X5.502Y-4.1929
X6.1614Y-4.0157
X6.1614Y-4.1929
X6.4173Y-4.0157
X6.4173Y-4.1929
T4
X4.0945Y-4.0945
X4.0945Y-5.2756
X6.6535Y-4.0945
X6.6535Y-5.2756
M30
